<?xml version="1.0" standalone="no"?>
<!DOCTYPE svg PUBLIC "-//W3C//DTD SVG 20010904//EN"
 "http://www.w3.org/TR/2001/REC-SVG-20010904/DTD/svg10.dtd">
<svg version="1.0" xmlns="http://www.w3.org/2000/svg"
 width="1936.000000pt" height="1549.000000pt" viewBox="0 0 1936.000000 1549.000000"
 preserveAspectRatio="xMidYMid meet">
<metadata>
Created by potrace 1.15, written by Peter Selinger 2001-2017
</metadata>
<g transform="translate(0.000000,1549.000000) scale(0.100000,-0.100000)"
fill="#000000" stroke="none">
<path d="M12300 14614 c-58 -8 -494 -61 -970 -119 -476 -58 -973 -119 -1105
-135 -132 -16 -577 -70 -990 -120 -706 -86 -1621 -199 -2230 -275 -148 -19
-553 -68 -900 -110 -1619 -195 -1899 -229 -2320 -280 -247 -30 -894 -109
-1438 -175 -764 -92 -997 -124 -1031 -139 -63 -27 -131 -94 -162 -157 -48 -99
-47 -112 79 -839 64 -363 147 -847 187 -1075 39 -228 118 -687 176 -1020 57
-333 129 -747 159 -920 30 -173 107 -616 170 -985 127 -730 318 -1840 365
-2110 123 -712 161 -932 166 -948 7 -23 51 -75 75 -88 14 -7 27 -5 49 6 17 9
340 90 718 180 378 91 779 187 892 214 341 82 2814 672 3285 784 l439 104 2
238 c2 184 5 240 16 251 10 10 83 13 339 15 180 1 332 -2 338 -6 7 -4 10 -20
7 -38 -5 -27 12 -276 19 -285 1 -1 49 9 106 22 57 14 106 23 108 20 2 -2 -1
-4 -6 -4 -7 0 -10 -14 -7 -32 l3 -33 -10 29 c-9 21 -14 25 -20 15 -13 -20 -11
-37 2 -19 8 12 10 12 7 1 -2 -8 -12 -15 -21 -17 -14 -2 -15 1 -6 18 6 11 8 22
5 26 -3 3 -6 1 -6 -5 0 -6 -12 -10 -27 -9 -20 1 -29 -4 -31 -19 -6 -29 -33
-58 -45 -46 -5 5 -7 17 -3 26 5 14 9 15 21 5 13 -10 15 -9 15 11 0 13 -4 19
-8 14 -4 -6 -15 -11 -24 -12 -40 -2 -43 -3 -28 -13 8 -5 12 -12 8 -15 -3 -3
-13 1 -22 11 -16 15 -17 12 -15 -45 1 -34 6 -61 11 -61 5 0 7 4 4 9 -3 4 4 17
16 27 12 11 18 13 14 7 -4 -8 -1 -13 9 -13 10 0 13 5 9 12 -5 8 2 9 26 5 30
-6 31 -6 19 11 -13 15 -12 16 3 4 14 -11 15 -17 6 -32 -11 -17 -13 -17 -23 -3
-10 14 -12 13 -10 -6 1 -13 8 -27 16 -32 12 -7 11 -9 -3 -9 -9 0 -19 9 -23 19
-6 19 -39 34 -49 23 -3 -3 -1 -11 6 -19 6 -7 8 -16 4 -20 -3 -3 -6 -1 -6 5 0
6 -7 9 -16 5 -15 -6 -15 -8 2 -21 16 -13 17 -14 2 -9 -17 6 -18 -6 -19 -156
-1 -183 -4 -261 -14 -362 -4 -38 -6 -100 -5 -137 1 -67 1 -68 -25 -68 -22 0
-24 2 -13 14 7 8 16 12 19 10 10 -6 5 54 -5 63 -5 4 -7 4 -4 -2 4 -5 0 -23 -8
-40 -12 -26 -13 -27 -9 -5 3 14 2 19 -1 12 -3 -6 -9 -10 -14 -7 -4 3 -6 -5 -3
-17 5 -23 5 -23 -10 -3 -15 19 -15 19 -14 1 2 -15 -6 -19 -38 -23 -82 -9 -550
-18 -556 -11 -3 5 -32 -1 -65 -12 -32 -10 -79 -24 -103 -30 -23 -6 -41 -13
-39 -15 2 -3 41 4 87 15 119 29 121 28 121 -23 0 -32 6 -49 21 -63 20 -18 19
-19 -143 -60 -147 -36 -208 -62 -208 -86 0 -4 31 -34 70 -67 l69 -60 -57 -3
-57 -3 -78 66 -77 67 -169 -43 c-115 -29 -176 -49 -192 -63 -22 -21 -22 -22
-4 -42 18 -20 18 -20 -44 -20 -47 0 -69 5 -87 19 -24 19 -25 19 -113 -4 -49
-12 -93 -25 -99 -29 -6 -3 -296 -24 -645 -46 -349 -22 -656 -44 -683 -49 -112
-22 -203 -70 -230 -123 -10 -20 -13 -46 -9 -91 3 -34 30 -613 60 -1287 31
-674 58 -1236 61 -1250 10 -46 84 -104 165 -131 104 -34 170 -32 1034 34 402
31 773 59 825 62 506 30 931 67 995 86 98 29 172 79 196 134 l20 44 -126 588
c-370 1733 -372 1742 -362 1733 3 -3 76 -332 162 -730 85 -399 161 -750 169
-780 25 -101 16 -35 -19 140 -19 95 -33 175 -31 178 16 16 1100 323 1147 325
21 1 35 5 33 8 -2 4 5 9 17 12 16 4 18 3 9 -8 -13 -16 -4 -39 11 -29 5 3 16 1
24 -6 10 -8 15 -8 21 1 5 8 3 9 -6 4 -9 -5 -11 -4 -6 4 9 14 29 3 23 -13 -3
-7 1 -13 9 -13 7 0 11 5 8 11 -3 6 0 4 8 -4 7 -8 20 -15 28 -15 9 0 14 -8 13
-20 -1 -20 -1 -20 13 -1 11 16 14 17 14 4 0 -8 6 -21 13 -27 10 -8 14 -7 14 4
0 8 -5 11 -10 8 -6 -3 -7 -1 -3 6 10 16 26 4 27 -22 1 -17 2 -18 6 -4 2 9 9
15 14 11 5 -3 6 -10 3 -16 -4 -6 1 -8 12 -5 36 11 429 115 471 125 24 5 40 6
37 1 -4 -8 0 -10 21 -9 3 0 20 -7 38 -17 17 -9 36 -17 41 -18 5 0 11 -5 13
-11 2 -6 -71 -33 -177 -64 -190 -57 -240 -80 -75 -35 78 22 103 25 122 16 13
-6 21 -16 18 -21 -4 -6 1 -7 11 -3 11 4 13 8 6 11 -7 2 -12 8 -12 14 0 6 8 4
18 -5 9 -8 21 -16 27 -16 5 0 12 -8 16 -18 7 -16 8 -16 8 -1 1 9 6 20 13 24 6
4 8 3 4 -4 -3 -6 -2 -14 4 -17 8 -5 7 -12 -2 -23 -12 -15 -11 -16 4 -3 10 7
16 17 13 21 -3 4 3 11 13 15 24 11 52 13 46 4 -2 -4 0 -10 6 -14 5 -3 10 -1
10 5 0 6 5 8 12 4 8 -5 9 -2 5 10 -5 14 -3 15 13 6 10 -5 22 -15 25 -20 4 -6
10 -8 15 -5 4 3 13 -2 20 -10 7 -8 16 -13 20 -10 5 3 12 0 16 -6 4 -7 3 -9 -4
-5 -6 3 -13 3 -16 -2 -3 -5 0 -9 7 -9 7 0 21 -4 31 -9 15 -6 18 -4 12 7 -4 8
2 3 13 -10 13 -15 27 -21 37 -17 15 6 15 4 3 -10 -13 -16 -12 -16 9 -5 12 6
22 7 22 2 0 -5 -6 -12 -12 -15 -7 -3 2 -3 20 0 24 3 31 1 26 -7 -5 -9 -2 -10
11 -5 14 5 16 4 7 -7 -9 -11 -7 -13 10 -12 13 1 31 -8 41 -19 10 -12 16 -16
13 -9 -4 6 -2 14 3 17 5 3 12 -1 15 -10 4 -9 9 -14 13 -11 3 4 13 1 21 -6 13
-10 14 -9 7 2 -6 10 -4 12 4 7 7 -5 10 -14 8 -21 -4 -8 4 -12 21 -13 46 0 53
-2 48 -11 -3 -5 1 -11 9 -14 10 -4 12 -1 9 11 -5 16 -5 16 9 0 7 -10 28 -19
45 -20 17 -1 29 -4 27 -7 -3 -2 5 -10 18 -16 16 -9 26 -9 36 -1 8 6 12 7 9 1
-3 -5 0 -16 8 -23 11 -10 14 -10 14 0 0 10 2 10 9 0 4 -8 11 -14 14 -14 24 0
46 -12 40 -22 -4 -6 1 -5 10 3 15 12 17 11 17 -5 0 -14 2 -16 9 -6 7 12 12 12
32 0 13 -7 30 -19 38 -26 10 -10 16 -11 21 -2 6 9 9 9 15 0 4 -6 14 -9 23 -5
9 3 13 3 9 -1 -9 -9 39 -34 65 -34 13 0 17 -4 12 -12 -5 -9 -2 -8 9 1 16 12
17 12 10 -5 -6 -17 -5 -18 12 -4 15 12 17 12 10 1 -6 -11 -4 -13 8 -8 10 3 17
2 17 -2 0 -5 8 -8 17 -7 10 2 24 -5 33 -14 8 -9 11 -10 5 -2 -7 11 -1 11 30
-2 21 -9 44 -21 51 -27 7 -6 18 -8 23 -5 5 4 12 2 16 -3 3 -5 14 -8 25 -6 11
2 20 -1 20 -6 0 -6 4 -8 9 -5 5 3 12 -2 15 -11 5 -12 10 -13 18 -5 13 13 40 4
31 -12 -4 -6 1 -5 10 3 13 10 17 10 17 1 0 -7 7 -10 16 -6 9 3 12 2 9 -4 -4
-7 3 -9 19 -6 15 3 26 0 26 -6 0 -6 3 -8 7 -5 3 4 13 1 21 -6 13 -10 14 -9 7
2 -6 11 -5 12 6 5 8 -4 19 -9 24 -10 55 -10 70 -15 78 -23 7 -7 15 -7 26 2 12
10 13 9 7 -1 -5 -9 -3 -13 5 -11 26 3 40 -1 34 -10 -3 -6 4 -8 15 -6 11 2 20
-2 20 -8 0 -7 4 -6 10 3 9 13 10 13 10 0 0 -13 1 -13 10 0 5 8 10 10 10 3 0
-6 9 -9 20 -6 11 3 20 0 20 -6 0 -6 5 -11 11 -11 5 0 7 6 3 12 -4 7 2 4 13 -7
11 -11 18 -23 16 -28 -2 -4 7 -2 21 4 19 9 29 9 39 1 10 -9 16 -9 25 0 9 9 16
7 28 -8 8 -10 13 -14 10 -7 -4 6 -2 14 4 18 5 3 10 1 10 -4 0 -6 5 -11 11 -11
5 0 7 5 3 11 -4 7 0 9 14 5 11 -4 32 -1 47 6 24 11 25 13 8 20 -12 6 -6 7 19
5 20 -2 34 1 32 5 -3 4 0 8 5 8 6 0 20 9 32 21 14 14 19 16 17 5 -2 -8 2 -15
7 -15 10 -1 11 3 14 35 0 8 4 13 9 11 4 -3 7 6 7 19 0 13 -5 26 -11 28 -7 3
-10 -4 -8 -17 4 -20 4 -20 -4 -2 -7 15 -2 26 24 50 57 54 70 122 33 168 -11
15 -65 52 -120 83 -73 41 -99 61 -99 76 0 31 -17 55 -63 86 -58 40 -407 222
-675 352 l-223 108 53 15 c29 9 104 30 166 48 62 18 110 34 108 36 -2 2 -80
-18 -174 -45 l-170 -49 -139 66 c-76 36 -166 79 -200 94 -66 30 -76 42 -43 52
33 10 23 29 -37 78 -232 184 -225 179 -268 173 -30 -5 -36 -3 -23 4 16 10 23
61 8 57 -4 -1 -67 43 -141 97 l-134 100 35 7 c92 18 99 18 95 6 -6 -16 1 -25
54 -70 25 -20 46 -46 48 -58 2 -11 -1 -18 -6 -15 -11 7 -8 -20 4 -31 4 -4 5
-3 1 4 -3 6 -1 15 5 18 5 4 8 14 5 22 -9 23 17 10 30 -15 14 -29 27 -41 18
-18 -5 12 8 7 42 -19 62 -48 85 -56 125 -45 l32 9 -22 -22 -21 -23 22 -21 c39
-34 232 -179 255 -192 18 -9 36 -8 85 5 35 9 68 17 73 18 6 1 19 5 30 9 11 3
34 9 50 12 67 13 81 16 113 25 35 9 37 8 21 -23 -9 -20 -9 -20 4 -5 18 23 29
12 16 -16 -10 -21 -10 -21 6 -1 9 11 21 28 26 38 9 16 8 17 -10 7 -14 -7 -21
-7 -21 0 0 5 7 10 15 10 7 0 18 7 23 16 8 14 10 12 14 -10 3 -14 2 -26 -1 -26
-15 0 -32 -42 -22 -54 6 -7 9 -16 6 -19 -3 -4 -2 -5 2 -2 11 9 12 36 1 29 -6
-4 -8 -1 -6 7 3 8 11 13 17 11 6 -1 10 2 9 7 -2 5 2 9 7 10 6 1 10 -3 10 -8 0
-5 3 -12 7 -16 8 -9 5 16 -5 31 -4 7 0 17 8 24 8 7 15 19 15 27 0 8 4 12 9 8
5 -3 12 -1 16 5 4 6 10 8 14 6 4 -3 8 1 8 9 0 8 -4 12 -8 9 -4 -2 -10 0 -14 5
-3 6 -13 8 -23 5 -13 -5 -14 -4 -3 4 8 6 10 12 3 16 -6 4 -15 -2 -21 -11 -6
-10 -11 -13 -11 -7 0 18 27 37 35 24 3 -6 12 -7 18 -4 7 4 9 4 5 -1 -9 -9 36
-35 62 -35 9 0 43 9 76 21 32 11 68 22 79 25 11 2 52 13 90 24 39 12 81 23 95
26 38 8 87 42 93 64 3 12 1 17 -5 14 -11 -7 -60 35 -53 46 3 4 -3 7 -13 6 -10
0 -16 5 -14 14 2 8 0 12 -3 8 -11 -11 -47 11 -39 24 4 6 3 8 -4 4 -6 -3 -46
19 -89 50 -68 49 -82 55 -113 50 -19 -3 -29 -2 -22 3 18 11 23 78 6 78 -7 0
-10 -5 -6 -11 3 -6 7 -17 9 -25 1 -10 -1 -11 -10 -2 -15 15 -19 51 -6 51 5 0
7 5 3 11 -4 7 7 1 25 -12 17 -12 31 -26 31 -31 0 -4 6 -7 13 -6 6 2 11 -2 10
-9 -2 -7 4 -10 12 -7 8 4 15 2 15 -4 0 -15 35 -21 55 -9 14 7 16 7 9 -4 -7
-12 -5 -12 9 0 9 7 17 10 17 6 0 -4 7 -2 15 5 12 10 15 10 15 -1 0 -11 2 -11
10 1 8 12 10 8 11 -15 l1 -30 8 30 c6 22 8 25 10 10 2 -11 2 -31 2 -45 -1 -22
0 -23 9 -7 5 9 15 17 21 17 7 0 6 -6 -2 -15 -11 -13 -10 -14 4 -9 9 3 16 9 16
13 0 12 -17 33 -26 32 -17 -2 -9 32 8 35 11 1 15 -4 13 -17 -4 -21 10 -26 18
-6 4 9 6 9 6 0 1 -6 -4 -15 -9 -18 -7 -4 -6 -14 2 -28 14 -26 14 -24 -13 -46
l-23 -18 22 -19 c12 -10 22 -24 22 -32 0 -7 5 -10 10 -7 6 3 13 -1 16 -9 3 -9
10 -14 14 -11 5 3 13 -3 19 -12 5 -10 13 -17 18 -15 4 1 8 -2 8 -7 0 -5 4 -13
9 -18 5 -5 6 -2 1 6 -5 9 -3 12 6 9 8 -3 13 -10 12 -15 -1 -5 19 -8 45 -7 26
1 47 3 47 4 0 1 8 3 18 5 9 2 15 0 12 -5 -3 -5 1 -11 7 -13 10 -4 10 -6 0 -6
-7 -1 -10 -6 -7 -11 5 -8 11 -7 21 1 12 9 12 15 2 28 -12 14 -11 14 5 2 17
-13 17 -15 -1 -35 -18 -19 -20 -52 -3 -42 4 3 8 -1 8 -9 0 -8 -3 -12 -6 -10
-4 2 -17 -3 -31 -11 l-25 -15 25 5 c14 3 19 3 12 0 -18 -8 -4 -24 16 -18 14 5
14 4 2 -4 -8 -6 -17 -9 -21 -6 -4 2 -10 0 -14 -6 -3 -5 -4 -10 -1 -10 10 0
195 49 336 90 165 47 389 108 421 114 13 2 32 7 42 11 12 5 17 2 18 -11 0 -18
1 -18 10 1 8 17 9 16 6 -7 -2 -15 0 -25 4 -22 5 3 9 14 9 24 0 10 4 21 9 24 5
4 7 -3 4 -14 -3 -11 0 -20 6 -20 6 0 10 3 9 8 -2 4 2 8 7 9 6 1 9 -9 8 -23 -2
-21 0 -24 12 -14 7 6 12 20 10 31 -2 11 0 17 6 13 6 -3 8 -9 5 -12 -3 -3 0
-12 7 -20 8 -11 8 -14 0 -9 -13 8 -27 -9 -28 -32 0 -8 -7 -17 -15 -19 -12 -4
-13 -2 -3 9 16 20 -11 59 -29 41 -6 -6 -13 -19 -14 -28 -1 -9 1 -13 4 -9 4 4
7 11 7 16 0 5 5 9 10 9 6 0 10 -10 10 -22 0 -16 6 -23 20 -23 14 0 20 -6 19
-23 -1 -18 1 -20 12 -11 16 13 19 23 5 14 -6 -3 -8 4 -6 15 2 11 0 18 -5 15
-4 -3 -6 4 -3 15 7 25 11 22 17 -11 2 -13 9 -23 16 -21 6 1 2 -11 -9 -27 -15
-21 -18 -32 -10 -37 7 -4 9 -3 6 3 -4 6 3 19 16 29 12 11 16 12 10 4 -14 -18
-12 -42 5 -62 6 -8 10 -18 7 -22 -3 -3 1 -2 7 4 19 16 38 12 38 -7 0 -16 2
-16 11 -3 9 12 10 11 6 -7 -3 -13 0 -26 5 -30 7 -3 8 -1 4 5 -4 7 -2 12 4 12
6 0 8 5 5 11 -4 6 2 5 14 -3 12 -7 21 -16 21 -21 0 -4 6 -5 13 -1 9 6 9 5 0
-7 -10 -12 -8 -15 7 -15 10 0 16 5 13 11 -4 5 4 1 17 -10 13 -11 20 -15 17 -8
-11 17 52 10 64 -8 8 -13 13 -6 10 14 -1 5 3 6 8 3 5 -4 8 -15 6 -26 -2 -11 1
-23 7 -26 6 -4 8 -3 5 3 -4 6 0 19 8 29 13 18 14 18 9 -6 -5 -23 -4 -23 7 -6
11 18 12 18 31 -5 11 -13 17 -18 13 -11 -3 6 -1 12 4 12 6 0 11 -4 11 -9 0 -5
7 -12 16 -15 15 -6 15 -4 3 11 -13 16 -12 17 4 4 9 -7 17 -10 17 -6 0 4 7 2
15 -5 8 -7 12 -16 9 -21 -3 -5 1 -6 9 -3 8 3 18 1 22 -5 4 -8 12 -8 25 -1 13
7 21 7 25 0 4 -6 11 -8 16 -5 5 4 12 -1 15 -10 6 -13 8 -14 15 -3 6 10 9 8 9
-7 0 -17 2 -17 10 -5 5 8 10 10 10 5 0 -6 14 -11 31 -11 16 -1 37 -10 45 -20
9 -11 13 -13 9 -6 -7 13 11 17 19 3 3 -5 19 -7 36 -5 17 2 29 0 26 -4 -2 -4
21 -7 52 -8 32 0 95 -4 142 -8 47 -4 114 -10 150 -13 90 -8 897 -7 1170 2 308
9 392 15 505 36 33 6 65 11 72 11 6 1 16 11 22 24 8 18 4 30 -18 66 l-29 45
84 41 c451 224 798 609 947 1052 128 380 108 791 -56 1115 -26 52 -186 328
-287 495 -64 104 -184 250 -207 250 -11 0 -10 -6 6 -29 12 -16 21 -36 21 -45
0 -22 -20 -11 -85 48 -27 25 -61 51 -75 58 -14 7 -31 19 -38 26 -7 6 -17 12
-22 12 -5 0 -15 6 -23 14 -7 8 -70 41 -138 75 -205 99 -399 155 -624 179 -135
14 -414 6 -505 -14 -14 -3 -38 -7 -55 -10 -93 -16 -322 -80 -340 -96 -5 -4
-15 -8 -22 -8 -14 0 -127 -49 -184 -80 -60 -33 -71 -28 -98 43 -12 34 -23 67
-24 72 0 6 29 26 64 45 l64 35 6 100 c4 55 10 145 13 200 11 166 23 340 32
447 l6 76 -99 -3 c-54 -2 -159 -4 -235 -5 -144 -1 -150 -3 -152 -52 -1 -9 -4
-20 -8 -24 -4 -3 -6 3 -3 14 2 12 0 24 -6 27 -5 4 -10 1 -10 -4 -1 -6 -2 -15
-3 -21 0 -5 -5 -10 -10 -9 -13 1 -25 -22 -21 -43 3 -12 0 -16 -7 -12 -8 5 -9
1 -5 -10 4 -10 7 -20 7 -24 0 -3 7 3 16 14 15 19 15 18 5 -2 -5 -11 -17 -26
-25 -33 -12 -10 -16 -9 -25 7 -7 13 -7 22 1 30 7 7 8 12 3 12 -5 0 0 7 11 15
16 13 16 14 2 9 -11 -4 -18 -1 -18 6 0 6 4 9 9 5 6 -3 15 3 20 14 8 15 7 20
-5 25 -8 3 -12 11 -8 17 5 8 3 9 -5 4 -9 -5 -10 -10 -2 -18 6 -6 11 -18 11
-26 0 -11 -4 -10 -15 5 -15 18 -15 18 -8 0 5 -14 3 -17 -6 -11 -10 6 -11 3 -2
-13 7 -14 8 -23 1 -27 -10 -6 -11 -5 -14 14 -2 18 -13 21 -13 4 0 -49 -3 -59
-13 -43 -9 13 -10 13 -10 0 0 -12 -2 -12 -9 -1 -6 8 -8 2 -7 -20 1 -38 -18
-53 -21 -17 -2 22 -1 21 6 -2 8 -23 9 -24 10 -3 1 12 -4 25 -9 28 -6 4 -7 11
-4 17 4 6 3 8 -2 5 -20 -12 -15 -70 8 -94 19 -20 37 -86 19 -67 -3 3 -6 14 -6
25 0 10 -4 18 -10 17 -5 -2 -9 -7 -7 -11 1 -5 -2 -6 -8 -2 -10 6 -13 -3 -13
-37 0 -10 -3 -15 -8 -13 -11 8 -2 45 16 65 8 9 12 20 9 23 -4 4 -13 -1 -21
-11 -13 -16 -13 -15 -5 3 5 11 6 31 1 45 -8 27 -7 30 -14 -60 -2 -25 -6 -59
-9 -75 -3 -16 0 -36 7 -44 9 -12 9 -13 0 -7 -10 5 -13 -4 -14 -36 -1 -24 -3
-59 -5 -78 -7 -65 -12 -115 -15 -172 -2 -32 -7 -58 -11 -58 -4 0 -6 24 -3 53
2 28 6 108 10 177 3 69 7 157 10 195 2 39 7 120 10 182 l6 111 -56 137 c-30
76 -52 141 -49 147 9 14 377 8 386 -6 6 -8 8 -7 8 2 0 6 5 12 11 12 5 0 7 -6
3 -12 -6 -10 -4 -10 7 -1 17 17 32 17 23 1 -6 -10 -4 -10 8 0 13 10 17 10 21
0 4 -10 6 -10 6 0 1 6 6 12 12 12 5 0 8 -4 4 -9 -3 -5 -1 -13 5 -16 6 -4 9 -1
8 6 -2 7 11 13 30 15 19 1 35 4 37 6 4 4 12 94 25 298 5 85 12 191 15 235 3
44 12 190 21 325 8 135 28 445 44 690 17 245 30 450 30 456 0 6 -12 9 -27 7
-16 -1 -179 -4 -364 -6 -259 -2 -336 0 -332 9 2 7 -5 30 -16 53 -24 47 -26 55
-8 45 6 -4 0 5 -15 20 -15 16 -25 32 -22 37 3 5 2 9 -3 9 -8 0 -33 47 -33 63
0 5 59 145 130 312 72 167 130 311 130 319 0 18 -75 69 -94 64 -19 -5 -455
-429 -471 -458 -11 -20 -11 -31 0 -55 16 -39 18 -35 -180 -336 -153 -232 -185
-275 -185 -249 0 5 -9 90 -20 188 -18 165 -56 510 -246 2272 -41 382 -84 781
-95 885 -29 264 -60 334 -171 389 -60 30 -96 31 -258 10z m3 -875 c8 -68 96
-867 197 -1776 l183 -1652 -78 -93 c-101 -119 -306 -348 -312 -348 -3 0 -2 7
1 16 3 8 2 12 -4 9 -6 -3 -10 -15 -10 -27 0 -11 -8 -22 -20 -25 -11 -3 -18 -9
-15 -13 6 -9 -262 -280 -276 -280 -5 0 -9 5 -9 10 0 6 -10 10 -22 9 l-23 0 23
-9 c30 -12 20 -31 -46 -90 -78 -70 -80 -71 -85 -57 -3 7 -6 2 -6 -10 -1 -16
-6 -21 -16 -17 -11 4 -13 2 -10 -9 4 -9 -5 -23 -22 -37 -15 -12 -56 -47 -91
-78 -35 -32 -68 -57 -73 -57 -5 0 -14 -7 -20 -15 -9 -12 -10 -10 -6 8 3 14 0
22 -9 22 -9 0 -12 -8 -8 -28 5 -26 -5 -36 -158 -158 -271 -217 -512 -394 -535
-394 -7 0 -13 -4 -13 -10 0 -5 -7 -10 -15 -10 -7 0 -18 -6 -22 -13 -12 -21
-161 -118 -183 -120 -10 -1 -17 -4 -14 -8 5 -9 -41 -39 -60 -39 -7 0 -16 -7
-20 -15 -3 -8 -10 -15 -16 -15 -6 0 -20 -8 -31 -19 -11 -10 -36 -27 -56 -37
-20 -11 -59 -34 -87 -51 -28 -18 -56 -33 -63 -33 -7 0 -13 -4 -13 -8 0 -10
-162 -98 -174 -94 -5 2 -13 -3 -17 -10 -7 -10 -9 -10 -9 2 0 9 -5 5 -13 -9
-14 -29 -57 -48 -57 -26 0 7 -6 17 -12 21 -7 4 -10 3 -5 -1 10 -11 -23 -46
-36 -38 -6 4 -7 1 -3 -6 6 -9 13 -8 27 5 16 14 19 15 14 3 -7 -19 -265 -155
-265 -140 0 6 -8 11 -17 10 -11 0 -13 -3 -5 -6 21 -8 13 -19 -25 -32 -21 -8
-40 -17 -43 -21 -7 -9 -215 -105 -390 -180 -346 -148 -781 -302 -1130 -400
-102 -28 -194 -55 -205 -59 -17 -7 -22 -22 -30 -96 -7 -65 -14 -89 -25 -91
-33 -6 -65 -13 -65 -14 0 -1 -7 -3 -15 -5 -16 -4 -48 -12 -80 -20 -11 -3 -30
-7 -41 -10 -12 -2 -36 -9 -54 -15 -18 -6 -42 -13 -54 -15 -11 -3 -31 -7 -43
-10 -13 -3 -32 -7 -43 -9 -11 -2 -32 -9 -47 -15 -16 -6 -28 -8 -28 -5 0 2 -8
0 -17 -5 -10 -5 -31 -11 -48 -14 -29 -6 -55 -12 -92 -22 -10 -2 -36 -9 -58
-15 -22 -6 -48 -13 -57 -15 -10 -3 -27 -7 -38 -10 -11 -3 -29 -7 -40 -10 -11
-3 -29 -7 -40 -9 -11 -3 -25 -8 -30 -11 -6 -4 -22 -9 -37 -11 -15 -3 -32 -9
-39 -15 -6 -5 -13 -6 -17 -3 -3 3 -21 1 -39 -5 -18 -5 -46 -13 -63 -16 -16 -3
-37 -8 -45 -10 -8 -2 -21 -4 -27 -4 -7 -1 -14 -11 -14 -23 -1 -13 -7 2 -15 32
l-13 55 3 -56 c3 -48 1 -57 -13 -54 -9 1 -20 -1 -26 -5 -5 -4 -18 -8 -27 -9
-42 -3 -48 -5 -48 -15 0 -6 -5 -4 -10 4 -7 11 -10 11 -10 2 0 -7 -5 -10 -10
-7 -6 3 -10 2 -10 -3 0 -5 -6 -9 -12 -9 -15 -1 -45 -7 -128 -28 -11 -3 -29 -7
-41 -10 -11 -2 -28 -6 -37 -9 -9 -3 -28 -7 -42 -10 -14 -2 -33 -7 -42 -11 -13
-5 -18 -2 -19 11 0 15 -3 13 -10 -6 -7 -17 -7 -26 0 -28 20 -7 11 -20 -15 -25
-23 -4 -25 -2 -19 21 5 22 4 24 -9 13 -12 -10 -15 -8 -19 11 -4 20 -4 20 -6
-4 0 -16 4 -28 9 -28 19 0 10 -18 -12 -23 -27 -7 -38 1 -18 13 13 8 12 10 0
14 -28 10 -55 0 -58 -22 -4 -25 -19 -29 -24 -8 -3 12 -6 12 -23 -1 -16 -13
-17 -15 -2 -10 22 8 22 -9 0 -17 -18 -7 -47 20 -37 35 3 5 -2 6 -11 2 -12 -4
-13 -8 -4 -13 13 -9 5 -40 -10 -40 -18 0 -22 20 -4 21 14 0 15 2 3 6 -8 3 -18
11 -22 17 -4 6 -8 0 -8 -15 0 -32 -9 -42 -27 -28 -10 9 -13 8 -13 -5 0 -24
-17 -19 -26 7 l-8 22 -6 -25 c-8 -33 -49 -41 -57 -11 -7 26 -23 17 -23 -12 -1
-20 -2 -20 -16 6 -18 33 -26 35 -18 3 4 -18 1 -27 -14 -35 -27 -14 -29 -14
-34 7 -5 17 -19 20 -58 13 -2 -1 1 -6 8 -13 7 -7 12 -16 12 -20 0 -13 -28 -9
-32 5 -2 10 -8 10 -28 -1 -23 -13 -23 -13 -2 -9 26 6 30 -8 5 -18 -12 -4 -24
1 -37 17 -15 17 -18 19 -13 5 12 -32 -5 -41 -19 -11 l-12 29 -1 -27 c-1 -35
-21 -37 -21 -2 0 14 -4 23 -10 19 -6 -3 -10 -17 -10 -31 0 -26 -17 -33 -22 -8
-3 13 -5 13 -23 -1 -17 -14 -17 -16 -2 -11 9 3 17 1 17 -4 0 -6 -6 -10 -14
-10 -7 0 -27 -3 -44 -6 -24 -5 -31 -2 -35 12 -4 16 -5 15 -6 -3 -1 -29 -21
-30 -21 -2 0 11 -4 18 -9 15 -5 -3 -7 -15 -4 -26 9 -34 -16 -22 -27 13 l-10
32 3 -33 c4 -37 -11 -55 -20 -24 -4 17 -9 19 -29 12 -13 -5 -24 -7 -24 -4 0 4
-7 1 -15 -6 -8 -7 -15 -9 -15 -5 0 4 -9 -4 -21 -19 -23 -30 -36 -32 -75 -11
-16 8 -32 11 -38 6 -6 -5 -28 -12 -48 -15 -21 -3 -43 -7 -50 -8 -7 -2 -17 17
-24 47 l-11 50 -4 -44 c-4 -48 -11 -52 -87 -55 -32 -1 -32 -2 -29 -41 4 -46
-8 -62 -49 -66 -16 -2 -35 -8 -43 -14 -12 -8 -13 -7 -6 5 7 12 6 13 -7 3 -12
-11 -17 -9 -26 13 -7 14 -12 31 -12 39 0 18 -4 18 -54 4 -68 -19 -73 -18 -85
7 -10 22 -15 24 -53 18 -61 -10 -88 -21 -88 -38 0 -14 26 -16 60 -3 40 15 68
13 79 -5 15 -23 14 -28 -4 -28 -8 0 -15 -4 -15 -10 0 -5 -11 -17 -25 -26 -24
-15 -27 -15 -44 0 -9 9 -24 16 -32 16 -12 0 -12 -2 0 -9 8 -5 9 -11 3 -15 -12
-7 -26 29 -17 43 3 5 -7 4 -22 -4 -16 -7 -46 -16 -69 -20 -37 -5 -42 -3 -53
21 -9 20 -17 25 -34 21 -12 -3 -39 -9 -60 -13 -21 -3 -40 -12 -42 -18 -2 -6
-6 -23 -9 -37 -3 -14 -11 -26 -18 -26 -21 -1 -81 -13 -89 -18 -4 -3 -10 1 -12
7 -3 7 -6 -13 -6 -44 l-1 -57 -54 -12 c-68 -15 -82 -10 -90 35 -6 31 -9 34
-29 27 -12 -5 -25 -9 -30 -9 -35 -2 -67 -16 -68 -30 -1 -9 -7 3 -14 28 -11 37
-13 40 -14 18 -1 -16 -5 -29 -11 -29 -13 -2 -29 -6 -35 -9 -10 -5 -26 -8 -54
-9 -37 -1 -61 -24 -54 -52 6 -21 -10 -39 -34 -39 -7 0 -17 15 -22 33 l-9 32
-2 -40 -2 -40 -12 29 c-13 28 -31 22 -20 -7 3 -8 1 -18 -4 -21 -5 -3 -13 9
-16 28 -5 25 -13 35 -31 38 -13 3 -22 1 -19 -3 3 -5 12 -9 20 -9 20 0 17 -38
-3 -43 -13 -3 -10 -5 7 -6 22 -1 23 -3 7 -12 -29 -17 -49 -3 -45 31 1 16 -2
28 -7 27 -6 -1 -9 -19 -7 -39 1 -21 -2 -38 -8 -38 -5 0 -10 12 -11 28 -1 27
-1 27 -11 -5 -10 -30 -28 -46 -28 -25 0 5 -6 16 -13 27 -13 16 -14 15 -9 -15
3 -23 1 -31 -7 -26 -6 4 -11 15 -11 24 0 9 -4 23 -9 31 -8 12 -12 12 -25 2 -9
-8 -16 -11 -16 -7 0 3 -12 1 -26 -4 -19 -8 -23 -7 -18 3 6 9 4 9 -7 1 -8 -6
-24 -13 -36 -16 -26 -7 -15 -65 -197 1017 -75 440 -266 1574 -426 2520 -415
2453 -491 2905 -497 2947 -5 35 -4 37 28 43 19 3 902 122 1964 265 1062 143
2180 293 2485 334 305 41 579 77 608 80 29 3 524 69 1100 146 576 77 1619 217
2317 311 699 93 1412 189 1585 213 173 23 316 42 318 41 1 -1 8 -58 15 -126z
m1367 -3539 c-27 -498 -52 -943 -55 -990 -12 -182 -58 -986 -57 -1005 0 -11
25 -74 57 -140 48 -101 56 -127 52 -163 -2 -23 -7 -45 -11 -49 -3 -4 -4 9 -1
28 l6 35 -76 2 c-66 2 -75 0 -75 -15 0 -11 3 -14 8 -8 4 6 25 11 47 12 22 1
33 -2 24 -5 -9 -4 -15 -15 -14 -24 2 -10 -2 -16 -8 -15 -6 1 -11 -3 -12 -10 0
-7 -7 -18 -15 -25 -12 -11 -12 -11 -2 3 6 9 9 19 5 22 -9 10 -32 -26 -25 -38
10 -16 11 -34 2 -40 -5 -3 -7 3 -5 15 2 11 0 22 -6 25 -9 6 -10 2 -13 -34 0
-11 -7 -26 -15 -33 -12 -11 -12 -10 -5 2 14 24 13 38 -2 51 -11 9 -16 6 -24
-16 -5 -14 -14 -24 -20 -20 -5 3 -18 -14 -29 -37 -13 -28 -20 -36 -21 -23 0
16 -2 17 -9 6 -5 -8 -8 -19 -7 -25 2 -6 1 -8 -1 -3 -3 4 -9 4 -14 1 -14 -8 11
-35 25 -27 6 3 7 2 3 -3 -5 -5 -13 -9 -18 -9 -5 0 -9 -4 -8 -10 1 -5 5 -9 11
-7 5 1 7 -2 3 -8 -5 -8 -11 -7 -21 1 -8 6 -14 8 -14 4 0 -4 -7 -2 -15 5 -8 7
-15 22 -14 34 1 20 2 18 15 -23 3 -10 7 -11 19 -1 8 7 12 17 9 22 -4 6 -10 5
-16 -3 -8 -11 -9 -10 -4 4 3 9 1 17 -4 17 -6 0 -10 5 -10 11 0 5 4 8 9 4 6 -3
15 4 21 15 6 11 15 18 21 15 11 -7 32 41 31 70 -1 16 1 17 8 5 9 -13 10 -13
10 0 1 9 6 5 15 -10 l14 -25 -1 27 c-1 15 -6 24 -11 21 -5 -3 -3 4 4 16 10 14
16 17 21 8 5 -7 5 6 2 28 -3 22 -8 42 -11 45 -3 3 -3 -7 -1 -22 3 -16 1 -28
-3 -28 -5 0 -9 6 -9 13 0 8 -4 7 -10 -3 -9 -14 -14 -7 -11 13 1 5 -3 6 -8 3
-5 -4 -8 -16 -6 -27 3 -15 0 -19 -10 -15 -8 3 -14 2 -14 -2 4 -21 -2 -32 -13
-26 -7 4 -10 4 -6 -1 4 -4 2 -15 -4 -24 -8 -10 -4 -9 10 3 12 11 22 15 22 10
-1 -13 -30 -50 -30 -38 -1 5 -7 -2 -14 -15 -8 -14 -16 -19 -20 -13 -3 6 -2 13
4 17 5 3 10 11 10 18 0 6 -6 2 -14 -9 -8 -10 -11 -23 -6 -28 11 -11 1 -38 -11
-30 -5 3 -6 10 -3 16 5 7 2 8 -5 3 -9 -5 -10 -10 -2 -18 13 -13 15 -31 2 -23
-13 8 0 -47 16 -65 17 -20 25 -57 14 -64 -5 -2 -8 3 -8 13 0 34 -3 43 -13 37
-6 -4 -7 -11 -4 -17 4 -6 2 -8 -3 -5 -12 7 -25 -16 -28 -48 -1 -19 -7 -45 -21
-100 -5 -20 -5 -20 10 -1 9 11 16 15 16 9 0 -7 -5 -15 -10 -18 -6 -4 -8 -10
-6 -14 3 -4 0 -13 -6 -21 -8 -12 -9 -12 -4 2 3 10 0 20 -5 24 -7 4 -9 -5 -7
-22 2 -16 8 -28 15 -27 7 2 10 -4 6 -13 -5 -13 -7 -13 -14 -2 -13 19 -12 -8 0
-31 7 -13 6 -18 -3 -18 -9 0 -12 22 -12 73 0 45 3 71 9 67 6 -4 8 5 5 20 -3
15 -2 24 2 22 4 -3 10 7 13 20 5 29 -9 43 -26 25 -9 -10 -9 -11 1 -6 7 5 12 1
12 -9 0 -9 -4 -14 -9 -10 -6 3 -8 -6 -5 -21 5 -25 3 -26 -13 -14 -15 12 -16
12 -6 0 10 -11 10 -17 0 -29 -9 -12 -9 -13 1 -7 6 4 12 2 12 -3 0 -6 -4 -11
-9 -11 -4 0 -6 -12 -3 -26 4 -21 2 -25 -9 -19 -11 7 -12 6 -3 -6 6 -8 15 -25
19 -39 7 -23 7 -24 -11 -10 -17 14 -18 14 -6 -2 9 -11 10 -18 2 -23 -6 -3 -7
-12 -3 -18 4 -7 7 -21 5 -32 l-2 -20 9 20 c5 11 7 28 5 38 -2 14 1 15 15 7 10
-5 20 -8 23 -7 2 1 -4 -5 -14 -15 -10 -9 -18 -23 -18 -32 0 -9 -6 -16 -12 -16
-9 0 -8 -4 2 -10 13 -8 8 -14 -11 -12 -3 1 -6 -6 -6 -13 0 -10 4 -12 12 -5 13
11 56 9 49 -2 -3 -4 -11 -5 -18 -2 -18 7 -30 -12 -15 -22 8 -5 9 -3 4 6 -5 9
-4 11 3 6 7 -4 16 -15 21 -24 8 -14 5 -18 -12 -19 -12 0 -16 1 -9 4 6 3 12 9
12 15 0 6 -8 4 -18 -5 -10 -10 -19 -24 -19 -32 0 -11 4 -12 11 -5 12 12 29 13
22 1 -4 -5 0 -12 6 -15 7 -3 4 -4 -7 -3 -21 2 -28 -19 -12 -40 4 -6 8 -20 7
-30 -4 -31 0 -43 11 -43 5 0 8 4 5 9 -3 5 1 12 9 15 13 5 14 2 4 -16 -9 -17
-8 -23 5 -30 12 -7 14 -13 7 -22 -7 -8 -6 -20 4 -39 11 -22 11 -28 -1 -38 -17
-14 -18 -39 -2 -39 9 0 9 -3 0 -12 -19 -19 -14 -32 6 -17 16 13 16 13 0 -6
-12 -15 -14 -25 -7 -40 8 -14 4 -12 -10 5 l-21 25 10 -30 c6 -16 7 -25 2 -20
-15 16 -25 55 -14 55 6 0 9 16 8 35 -2 19 0 35 3 35 6 0 7 56 1 75 -2 6 -4 16
-4 22 -1 7 -6 12 -11 10 -6 -1 -8 -6 -6 -12 2 -5 3 -19 3 -30 -1 -16 1 -17 8
-5 8 13 10 12 10 -2 0 -16 -11 -23 -33 -19 -5 1 -6 -3 -2 -9 3 -6 11 -8 16 -5
5 4 9 -1 9 -10 0 -9 -4 -14 -9 -10 -8 5 -38 -34 -33 -42 6 -9 0 -23 -8 -18 -5
3 -6 13 -3 23 3 9 2 14 -2 10 -5 -5 -9 -36 -10 -70 -1 -35 0 -48 2 -31 4 27 8
32 28 31 13 -1 22 -4 20 -7 -3 -2 4 -18 15 -35 14 -23 16 -36 9 -46 -9 -13
-10 -12 -6 2 3 9 -1 24 -8 35 -13 17 -14 17 -24 -7 -9 -23 -10 -21 -7 13 4 47
-10 49 -16 2 -3 -25 1 -40 13 -51 13 -12 18 -13 22 -2 3 7 5 3 3 -9 -1 -12 -6
-26 -11 -30 -4 -5 -5 -3 -2 3 4 7 0 17 -8 24 -8 7 -15 9 -15 6 0 -4 -6 -4 -12
1 -21 12 -39 12 -35 0 2 -7 9 -13 15 -13 7 -1 15 -3 20 -4 4 -1 10 -2 13 -2 8
1 5 -45 -4 -54 -3 -4 -5 3 -2 14 5 30 -21 49 -34 24 -6 -11 -7 -23 -3 -27 4
-5 1 -5 -5 -1 -8 4 -13 1 -13 -9 0 -9 5 -13 10 -10 6 4 9 1 8 -7 -2 -7 2 -12
9 -11 13 3 12 -22 -2 -34 -4 -4 -5 -3 -2 3 4 6 -2 19 -13 29 -11 10 -20 23
-20 29 0 7 -9 12 -20 12 -11 0 -20 -3 -20 -7 0 -4 -3 -16 -6 -26 -5 -17 -5
-17 9 0 15 18 28 23 26 10 -3 -20 2 -33 12 -30 6 1 14 -5 16 -13 4 -12 3 -12
-5 -2 -13 19 -25 17 -34 -5 -6 -12 -6 -8 -3 11 5 24 4 27 -8 18 -8 -7 -12 -27
-11 -49 1 -21 0 -32 -3 -25 -9 22 -21 3 -17 -27 2 -17 -1 -33 -6 -36 -7 -4 -6
-13 1 -26 7 -13 7 -24 1 -32 -10 -12 9 -52 20 -42 2 3 5 -2 5 -12 0 -12 -5
-11 -20 8 -11 13 -24 23 -29 21 -6 -1 -16 3 -24 9 -8 6 -14 8 -14 3 0 -18 16
-31 33 -28 11 1 14 -2 10 -9 -4 -7 -8 -18 -9 -25 -2 -8 -6 -17 -10 -20 -4 -4
-4 1 -1 10 3 9 0 22 -8 28 -11 9 -13 7 -11 -14 1 -14 6 -29 9 -33 4 -3 7 -13
6 -22 0 -10 -5 -6 -11 9 -6 14 -10 32 -9 40 2 12 0 12 -9 3 -7 -6 -10 -18 -8
-25 3 -7 5 -16 4 -19 0 -4 8 -17 19 -30 l20 -24 -21 17 c-16 14 -23 15 -32 6
-17 -17 -15 -33 2 -19 10 8 16 9 21 1 4 -6 1 -9 -7 -8 -9 2 -12 -6 -11 -26 2
-29 -7 -31 -11 -2 -1 9 -5 16 -9 16 -4 0 -6 -1 -5 -2 1 -2 -4 -12 -10 -24 -8
-14 -8 -24 -1 -31 8 -8 7 -13 -2 -18 -7 -5 -10 -4 -5 3 3 6 2 13 -4 17 -5 3
-11 -1 -11 -9 -1 -9 -2 -25 -3 -35 0 -11 -7 -26 -13 -32 -7 -7 -13 -26 -13
-42 0 -16 -4 -26 -10 -22 -6 4 -8 10 -5 15 3 4 6 27 7 50 1 32 4 40 17 35 8
-3 12 -3 9 0 -4 4 -3 18 3 32 5 13 5 22 0 19 -4 -3 -6 6 -3 19 2 14 0 25 -5
25 -5 0 -8 -18 -6 -40 2 -22 -1 -40 -6 -40 -5 0 -7 28 -5 63 2 34 6 105 10
157 3 52 6 107 6 123 0 15 5 27 10 27 5 0 7 -4 4 -9 -3 -5 3 -20 13 -33 13
-16 17 -29 10 -39 -7 -12 -9 -11 -9 3 0 30 -15 27 -16 -4 -1 -19 2 -25 7 -16
6 9 8 7 7 -7 -1 -11 2 -31 6 -44 6 -16 5 -21 -3 -17 -6 4 -11 17 -12 29 -1 20
-2 20 -8 -3 -4 -15 -2 -35 6 -50 15 -28 17 -50 5 -50 -4 0 -9 12 -10 27 -4 48
-10 35 -9 -19 1 -29 3 -45 5 -35 2 9 8 17 13 17 6 0 5 -9 -1 -22 -10 -21 -10
-22 3 -5 11 13 16 15 19 5 3 -7 5 5 5 27 0 22 2 60 6 85 4 31 3 39 -3 25 -7
-15 -8 -11 -6 18 2 21 7 41 11 45 4 4 5 -4 1 -18 -6 -22 -5 -22 11 5 9 17 16
41 15 55 l-1 25 9 -25 c8 -21 9 -18 5 15 -4 31 -2 36 5 20 9 -16 9 -15 5 10
-4 22 -3 26 5 15 9 -13 10 -13 11 0 1 8 1 19 0 24 -1 4 2 13 7 20 6 6 6 21 1
35 -8 19 -12 21 -24 11 -13 -11 -15 -9 -11 11 3 13 5 26 5 29 1 3 6 -2 12 -10
8 -12 10 -12 7 -1 -2 8 -14 15 -26 16 -17 1 -19 -2 -12 -15 5 -10 7 -20 3 -23
-3 -4 0 -13 6 -21 9 -10 9 -16 1 -21 -6 -4 -9 -12 -7 -18 2 -7 -7 -20 -20 -30
-17 -13 -21 -25 -17 -42 3 -13 0 -26 -7 -31 -8 -5 -11 -2 -6 8 3 9 1 20 -4 25
-7 7 -2 20 14 39 29 35 39 61 27 69 -5 3 -6 13 -3 23 7 18 5 17 -17 -11 -7
-10 -9 -17 -4 -15 10 3 14 -4 14 -26 0 -10 -7 -13 -21 -11 -15 3 -18 1 -11 -8
7 -8 6 -18 -2 -30 -18 -23 -25 -21 -21 6 9 52 19 348 30 826 3 139 8 257 11
262 3 6 0 16 -6 24 -9 11 -9 15 -1 15 6 0 11 10 10 23 0 21 -1 21 -9 2 -7 -16
-9 -17 -9 -3 -1 9 3 19 7 22 5 3 8 18 7 33 -1 15 2 40 6 56 5 16 4 25 -2 22
-5 -4 -9 -1 -9 4 0 6 4 11 10 11 12 0 9 22 -5 32 -7 5 -6 8 1 8 11 0 12 84 1
110 -23 57 -83 266 -78 273 4 4 135 9 292 10 l284 2 7 90 c3 50 13 241 22 425
9 184 18 362 21 395 2 33 7 128 11 210 3 83 7 159 9 171 8 54 15 378 8 369 -5
-6 -70 -10 -158 -10 -177 0 -231 -6 -227 -24 1 -7 -2 -10 -8 -6 -6 3 -8 10 -5
14 6 11 -66 8 -83 -2 -7 -5 -12 -3 -12 5 0 8 -3 9 -8 3 -4 -5 -14 -10 -22 -10
-8 0 -18 5 -22 10 -5 6 -8 5 -8 -2 0 -7 -7 -10 -15 -7 -10 4 -15 0 -14 -12 0
-13 2 -14 6 -5 5 11 7 11 14 0 7 -12 9 -12 9 0 0 8 9 2 21 -13 12 -15 24 -25
27 -22 3 3 -3 15 -13 26 -10 11 -13 20 -7 20 7 0 12 -6 12 -12 0 -9 3 -8 9 1
7 10 9 -1 7 -33 -1 -26 1 -49 6 -52 9 -6 10 -4 12 53 2 46 10 63 20 38 3 -9 2
-14 -3 -11 -4 3 -8 -11 -8 -32 0 -20 -2 -41 -4 -47 -2 -5 1 -10 6 -10 6 0 9 4
7 8 -1 5 2 6 8 2 7 -4 7 -11 2 -18 -5 -7 -8 -24 -7 -39 1 -15 -2 -25 -6 -22
-4 2 -6 13 -4 23 2 11 -7 29 -21 42 -13 12 -24 18 -24 12 0 -6 7 -16 15 -23 9
-7 14 -19 11 -25 -2 -7 0 -18 4 -26 5 -8 4 -19 -2 -26 -6 -7 -7 -13 -2 -13 4
0 -3 -11 -15 -24 -14 -15 -19 -26 -12 -31 8 -4 8 -12 0 -26 -5 -11 -9 -27 -7
-37 1 -9 -1 -22 -5 -28 -4 -7 1 -18 10 -25 15 -12 16 -12 11 3 -4 9 -1 24 6
34 11 14 14 15 22 3 10 -17 13 -80 3 -74 -3 3 -5 18 -4 35 1 17 -1 33 -6 36
-5 3 -10 -1 -10 -8 -1 -7 -2 -20 -3 -28 -1 -8 2 -23 6 -32 5 -9 4 -19 -1 -22
-10 -7 -9 -25 2 -42 4 -7 -1 -18 -11 -25 -15 -13 -16 -12 -4 3 8 10 9 19 3 22
-10 7 -10 24 2 42 4 7 -2 23 -13 35 -11 13 -19 19 -20 13 0 -5 5 -15 12 -22 8
-8 9 -15 2 -22 -8 -8 -15 -6 -24 5 -12 14 -15 13 -37 -6 -12 -13 -23 -27 -23
-32 0 -6 11 0 24 12 13 12 26 19 29 14 8 -13 2 -56 -11 -79 -6 -12 -8 -25 -4
-29 4 -3 1 -5 -7 -3 -7 1 -16 -3 -19 -11 -3 -8 0 -11 7 -7 7 5 9 1 5 -11 -4
-13 -1 -12 13 5 16 20 21 21 31 9 10 -11 9 -17 -2 -26 -14 -12 -16 -35 -3 -47
6 -7 11 9 9 28 -1 3 5 12 14 18 13 11 12 15 -3 32 -13 14 -14 21 -5 30 7 7 12
8 12 3 0 -5 12 2 27 16 20 17 23 18 12 4 -17 -22 -18 -33 -5 -55 5 -8 -3 -4
-17 9 -15 14 -27 20 -27 14 0 -6 7 -16 15 -23 14 -12 14 -15 0 -30 -12 -13
-12 -19 -2 -30 7 -8 8 -11 1 -7 -7 4 -15 0 -18 -9 -5 -13 -9 -14 -21 -4 -8 7
-15 9 -15 5 0 -4 -7 -2 -15 5 -19 15 -19 1 -1 -23 11 -14 15 -15 19 -5 4 9 6
9 6 1 2 -22 -18 -24 -29 -2 -7 11 -14 19 -16 16 -8 -7 18 -57 27 -52 9 6 23
-14 25 -37 3 -31 4 -33 14 -18 6 9 10 10 10 3 0 -6 -5 -15 -10 -18 -6 -4 -7
-12 -3 -18 4 -7 8 -21 10 -32 1 -11 -1 -14 -3 -7 -3 6 -10 9 -15 6 -6 -3 -6
-11 2 -20 6 -7 16 -11 23 -7 7 4 6 1 -1 -9 -7 -8 -11 -18 -8 -21 3 -4 3 -6 1
-4 -2 1 -5 7 -6 12 -1 6 -8 17 -16 26 -13 14 -13 18 1 29 8 7 12 17 8 24 -4 6
-8 14 -9 19 -1 4 -3 9 -4 12 -1 3 -4 14 -5 25 -4 36 -7 36 -17 0 -13 -48 -11
-79 7 -107 9 -13 13 -23 9 -23 -4 0 -2 -6 4 -13 8 -9 8 -17 0 -27 -8 -13 -9
-12 -5 2 3 9 3 19 -1 23 -4 4 -7 10 -7 13 -1 4 -6 16 -12 27 -15 27 -18 55 -8
89 5 19 3 39 -9 63 -12 25 -13 39 -6 53 6 11 6 21 1 24 -17 11 -23 -51 -8 -81
8 -15 12 -37 10 -48 -10 -44 -10 -71 2 -95 7 -14 15 -36 19 -50 5 -21 3 -20
-9 5 -8 17 -15 28 -15 25 -9 -35 -9 -50 0 -45 6 4 9 1 8 -7 -2 -7 2 -12 9 -11
7 2 10 -4 7 -12 -5 -12 -10 -10 -24 8 -18 23 -21 49 -7 63 14 14 7 26 -8 14
-19 -16 -19 -64 0 -80 8 -6 13 -17 12 -23 -1 -6 4 -12 11 -13 6 -1 15 -2 19
-3 4 0 2 -6 -5 -13 -9 -9 -9 -15 1 -27 11 -14 10 -14 -5 -2 -10 7 -16 17 -13
21 3 4 -3 14 -12 21 -15 12 -16 12 -10 -4 3 -9 2 -28 -2 -40 -5 -13 -6 -29 -1
-36 9 -16 18 -2 15 22 -3 15 -1 16 11 6 13 -10 12 -15 -6 -34 -14 -15 -17 -24
-9 -32 8 -8 8 -13 0 -18 -6 -3 -11 -3 -10 2 1 4 0 10 -1 13 -3 9 -11 44 -12
55 -1 6 2 21 6 34 6 18 5 22 -4 16 -9 -5 -11 -4 -6 3 12 19 15 51 7 57 -18 10
-23 -125 -7 -170 5 -14 3 -13 -7 4 -8 14 -17 19 -21 13 -3 -6 -2 -13 3 -16 5
-4 8 -14 6 -24 -1 -9 2 -22 7 -29 5 -7 5 -14 -2 -18 -6 -3 -7 -12 -4 -18 4 -7
-6 0 -22 15 -20 19 -29 38 -29 62 -1 19 1 33 5 31 3 -2 5 10 4 28 l-3 32 8
-30 9 -30 2 30 c2 17 3 41 2 55 -1 23 -1 23 8 5 7 -15 8 -8 5 25 -4 37 -3 40
4 15 7 -24 8 -19 8 30 -1 33 2 70 5 82 4 13 2 25 -3 29 -5 3 -8 13 -5 22 14
55 16 77 5 62 -9 -13 -10 -12 -5 3 3 10 2 16 -2 13 -4 -2 -8 12 -9 32 -1 32 0
34 7 12 9 -28 10 -23 15 60 2 25 8 63 13 83 7 26 7 35 0 31 -7 -5 -7 -1 0 12
8 15 7 24 -6 38 -9 11 -12 16 -5 13 7 -5 10 0 7 15 -4 22 -4 22 6 3 9 -17 9
-15 5 10 -4 22 -3 26 4 15 8 -11 9 -6 6 20 -9 74 -4 214 8 227 3 3 2 15 -3 28
-6 15 -4 29 5 42 8 11 11 24 7 28 -4 5 -2 5 5 2 7 -5 9 0 5 15 l-5 22 -8 -22
c-11 -29 -22 -28 -14 1 l6 22 -14 -23 c-7 -12 -16 -20 -20 -16 -4 4 -1 14 5
23 10 13 10 14 -2 4 -11 -10 -17 -10 -29 0 -13 10 -14 10 -6 -3 6 -8 10 -39 9
-68 -1 -29 2 -55 7 -58 5 -3 9 -10 9 -16 0 -6 -8 -4 -18 5 -13 12 -18 29 -16
59 2 32 0 38 -6 23 -7 -17 -9 -15 -9 13 -1 18 -6 42 -11 53 -11 19 5 100 19
97 10 -3 75 14 86 22 6 4 19 10 29 14 17 6 17 5 5 -11 -13 -16 -12 -17 4 -4 9
7 17 10 17 5 0 -5 12 5 26 21 14 17 23 25 20 18 -4 -6 -2 -14 3 -17 5 -3 11 4
14 15 3 12 10 18 16 14 6 -3 11 -3 12 2 0 4 2 19 5 33 l4 25 -15 -25 c-8 -14
-14 -19 -15 -11 0 8 -3 11 -7 8 -3 -4 -12 -2 -20 4 -12 11 -41 16 -110 20 -27
2 -31 5 -23 19 14 25 21 27 165 29 71 2 131 4 132 5 2 1 -5 72 -14 158 l-17
155 96 134 c52 74 161 234 242 355 l148 222 30 -12 c27 -10 32 -8 47 10 16 21
16 21 19 -15 1 -20 -20 -443 -48 -941z m-984 -442 c-3 -73 -20 -446 -36 -828
-30 -689 -35 -774 -49 -766 -7 5 -56 -4 -100 -19 l-24 -7 7 241 c3 133 9 295
12 359 6 107 5 116 -10 102 -13 -12 -16 -44 -20 -160 -2 -80 -5 -149 -6 -155
-1 -5 -1 -12 0 -15 6 -15 5 -48 -1 -44 -4 2 -6 -12 -4 -31 2 -24 0 -33 -8 -28
-7 4 -6 -1 2 -10 7 -9 10 -17 5 -17 -5 0 -10 -51 -11 -113 -2 -151 -7 -225
-16 -233 -4 -4 -1 -14 6 -23 11 -14 10 -14 -5 -2 -21 15 -24 2 -5 -19 10 -12
9 -12 -6 0 -16 12 -19 11 -24 -10 -6 -22 -7 -23 -13 -4 -10 27 -1 51 12 32 7
-10 8 -8 4 5 -4 12 -2 16 6 11 7 -5 8 -3 3 6 -6 9 -4 11 6 5 8 -5 11 -5 7 0
-4 4 -3 16 3 27 6 11 8 26 5 35 -5 13 -9 13 -23 2 -14 -12 -15 -11 -9 11 6 21
5 22 -4 7 -8 -13 -9 -22 -1 -31 6 -7 8 -16 4 -19 -3 -4 -12 1 -20 11 -10 12
-10 8 1 -15 9 -18 12 -34 7 -38 -5 -3 -11 0 -14 7 -2 7 -3 4 -1 -8 2 -13 -2
-21 -11 -21 -11 0 -14 7 -10 21 4 14 0 12 -10 -7 -14 -24 -19 -27 -33 -16 -14
11 -15 11 -5 -1 10 -11 10 -17 0 -29 -8 -10 -8 -13 0 -8 6 4 13 4 16 0 2 -5 2
-3 1 4 -2 7 1 15 6 18 6 4 10 0 10 -9 0 -8 3 -23 6 -33 3 -10 2 -14 -3 -8 -9
11 -23 15 -70 20 -18 1 -31 -1 -28 -5 3 -5 1 -11 -5 -15 -5 -3 -10 0 -10 7 0
9 -3 9 -10 -2 -9 -14 -15 -6 -10 15 1 6 -1 8 -3 5 -3 -3 -6 -9 -7 -15 -1 -5
-11 -27 -21 -47 -10 -21 -18 -50 -18 -65 2 -26 2 -25 9 7 l7 35 2 -33 c0 -20
5 -31 11 -27 6 4 8 11 4 16 -3 6 -3 22 1 37 5 20 8 23 16 11 12 -20 11 -2 -2
23 -6 11 -8 22 -5 25 3 3 10 -5 15 -18 9 -21 10 -22 11 -4 1 18 2 18 11 -3 10
-26 3 -46 -12 -37 -5 4 -9 -1 -9 -10 0 -9 4 -14 9 -11 5 4 7 -4 3 -16 -5 -20
-7 -19 -19 12 l-13 35 4 -36 c2 -24 -3 -44 -15 -60 -12 -16 -14 -27 -8 -35 7
-8 2 -21 -15 -40 l-26 -29 -7 25 -7 25 -7 -25 c-6 -23 -7 -23 -8 -3 -1 12 3
24 9 28 5 3 7 12 4 19 -3 8 -1 17 5 21 6 3 11 16 12 28 1 21 2 20 9 -3 6 -17
7 -8 3 26 -3 31 0 60 7 73 13 25 23 67 13 57 -4 -4 -8 -12 -9 -19 -2 -7 -7
-25 -13 -42 -6 -16 -14 -50 -19 -75 l-10 -45 2 55 c1 31 6 62 11 70 4 8 5 12
0 8 -11 -11 -36 12 -28 25 3 6 1 7 -6 3 -9 -6 -9 -11 1 -23 18 -22 17 -54 -1
-77 -9 -10 -16 -32 -16 -50 -1 -17 -7 -40 -14 -51 -12 -19 -12 -19 -7 4 3 13
-1 30 -10 38 -8 8 -14 11 -14 6 0 -5 4 -13 10 -19 6 -6 4 -20 -5 -38 -10 -19
-11 -25 -3 -18 19 15 30 15 40 0 6 -9 7 -5 3 11 -5 16 -4 21 4 17 6 -4 11 -15
11 -25 0 -14 -9 -18 -42 -19 -24 -1 -70 -2 -103 -3 -34 -2 -67 1 -74 6 -10 5
-12 4 -7 -3 4 -7 2 -12 -3 -12 -6 0 -11 5 -11 10 0 6 -4 10 -9 10 -6 0 -8 -9
-6 -20 2 -11 1 -19 -3 -19 -19 3 -33 -2 -28 -9 3 -5 -2 -9 -11 -9 -12 0 -11 5
7 19 12 10 18 18 14 18 -5 1 2 10 15 20 13 11 18 20 12 20 -7 0 -9 5 -6 10 3
6 2 10 -3 10 -10 0 -9 30 2 48 7 11 4 11 -13 0 -12 -7 -17 -14 -11 -16 5 -2
10 -8 10 -13 0 -6 -4 -7 -10 -4 -5 3 -10 1 -10 -5 0 -6 -6 -8 -12 -4 -7 4 -4
-3 7 -16 15 -18 16 -22 4 -18 -9 4 -16 1 -16 -7 0 -7 7 -11 15 -8 12 5 12 2 3
-15 -6 -11 -16 -24 -22 -27 -7 -5 -6 -12 3 -23 10 -12 10 -14 1 -8 -7 4 -13 4
-14 -1 -2 -20 -8 -45 -12 -49 -3 -3 -3 50 -1 118 6 212 15 622 19 918 3 157 5
288 5 291 0 3 14 16 31 28 18 13 29 17 25 10 -4 -8 -1 -6 7 4 11 14 16 15 20
5 3 -8 6 -5 6 7 1 17 3 17 11 5 8 -12 10 -12 10 -1 0 11 3 11 17 0 14 -12 16
-12 8 0 -6 11 -4 13 8 8 9 -3 19 -2 22 4 4 5 11 7 16 4 5 -4 10 -1 10 4 1 6 2
15 3 20 0 5 5 13 9 18 5 4 7 1 5 -7 -2 -8 3 -14 10 -15 7 0 16 -6 21 -13 6
-11 10 -10 15 4 3 9 9 14 13 11 3 -4 13 -1 21 6 13 10 14 9 7 -2 -6 -11 -4
-13 8 -8 17 7 41 -15 29 -28 -4 -5 0 -4 8 1 25 14 52 15 45 2 -4 -7 3 -2 14
12 17 20 20 21 14 5 -6 -17 -5 -18 9 -7 14 11 18 10 27 -5 8 -14 10 -15 11 -3
0 13 1 13 10 0 5 -8 10 -10 10 -5 0 6 5 3 10 -5 8 -12 10 -12 10 -1 0 11 3 11
17 0 11 -10 14 -10 9 -2 -5 10 -1 11 18 3 14 -5 26 -6 26 -2 0 4 5 0 10 -8 8
-13 10 -12 10 4 0 20 0 20 16 0 8 -10 12 -12 8 -4 -7 13 -5 13 9 1 14 -11 17
-11 17 0 0 11 2 11 10 -1 9 -13 14 -7 11 13 0 4 4 7 9 7 6 0 10 -8 10 -17 0
-9 3 -14 6 -10 11 11 -45 169 -57 161 -5 -3 -9 0 -9 5 0 14 -117 15 -125 1 -4
-6 -12 -7 -18 -3 -21 13 -38 12 -44 -4 -5 -12 -8 -12 -15 -1 -7 9 -8 5 -4 -12
5 -24 4 -24 -9 -6 -14 18 -15 18 -15 2 0 -9 -5 -14 -10 -11 -6 4 -7 12 -3 18
5 9 3 9 -8 0 -8 -6 -18 -13 -24 -15 -5 -1 -9 -7 -7 -13 2 -5 -2 -5 -9 2 -8 8
-18 9 -30 2 -10 -5 -30 -7 -44 -5 -18 3 -25 0 -26 -12 0 -14 -2 -13 -9 3 -6
13 -9 15 -9 5 -1 -9 -4 -11 -9 -5 -10 15 -46 19 -37 5 4 -7 -5 -4 -21 6 -28
18 -29 18 -14 0 14 -18 14 -19 -8 -5 -22 14 -21 15 50 86 l73 72 175 37 c96
20 180 41 185 47 12 11 -4 8 -192 -32 -73 -15 -133 -24 -133 -20 0 5 3 9 8 9
4 0 63 56 132 124 68 69 128 122 132 120 4 -3 8 0 8 6 0 6 70 87 156 179 85
93 162 178 170 190 8 11 18 21 21 21 3 0 3 -60 -1 -132z m171 -191 c-2 -61 -8
-103 -19 -124 -13 -26 -14 -34 -3 -43 10 -8 10 -18 0 -48 -21 -62 -26 -91 -16
-96 11 -7 27 12 33 39 3 11 5 -5 5 -34 0 -33 -3 -47 -7 -35 -6 16 -8 15 -13
-11 -3 -16 -4 -43 0 -60 3 -16 6 -46 7 -65 1 -19 4 -39 8 -45 3 -5 4 -17 2
-25 -21 -92 -32 -164 -28 -178 5 -14 4 -14 -4 -2 -5 8 -13 26 -16 40 -6 19 -5
22 3 10 8 -11 10 -4 6 29 -3 24 -8 47 -10 52 -3 4 -1 10 4 13 5 4 11 1 14 -6
2 -7 2 -2 0 12 -2 17 -1 21 5 12 6 -10 9 -4 8 16 -1 17 -4 28 -8 25 -5 -2 -8
0 -8 6 0 5 5 13 10 16 6 4 8 19 6 33 -2 15 -5 32 -5 37 -1 6 -6 3 -11 -5 -6
-9 -10 -10 -10 -3 0 6 4 15 10 18 5 3 7 19 4 34 -3 16 -1 37 4 48 8 15 8 20
-3 20 -7 0 -11 -7 -8 -14 3 -8 0 -13 -7 -11 -7 2 -15 -4 -17 -12 -4 -13 -3
-13 6 0 9 12 11 11 11 -7 0 -12 3 -29 6 -37 4 -11 2 -15 -7 -13 -8 2 -11 2 -7
0 5 -3 3 -13 -3 -24 -5 -11 -6 -19 -2 -18 21 3 22 -3 7 -32 -8 -17 -12 -29 -7
-26 5 3 9 -10 9 -28 0 -29 -2 -32 -15 -22 -12 10 -13 9 -6 -3 5 -8 10 -21 12
-29 1 -8 5 -26 8 -40 6 -22 5 -23 -12 -11 -15 11 -16 11 -6 0 9 -9 9 -19 2
-33 -7 -12 -7 -17 -1 -13 14 8 21 -28 13 -66 -12 -55 -6 -107 16 -131 19 -21
29 -62 12 -51 -5 2 -6 12 -3 22 4 12 0 10 -13 -6 -11 -14 -18 -36 -17 -58 1
-19 0 -33 -4 -30 -3 3 -10 -1 -16 -10 -9 -12 -11 9 -10 88 1 57 3 103 3 103 1
0 3 61 5 136 1 74 5 139 7 145 3 5 5 64 4 132 0 68 3 126 7 128 4 3 3 16 -2
30 -6 14 -7 31 -3 37 4 6 8 49 9 97 1 47 5 102 7 122 3 21 2 36 -2 33 -4 -2
-8 2 -8 10 0 10 4 12 12 5 15 -12 35 9 38 39 0 11 5 17 9 15 4 -3 6 -46 5 -97z
m-1157 -713 c0 -49 -2 -55 -17 -49 -15 5 -16 4 -5 -6 15 -16 17 -275 2 -284
-6 -4 -7 -11 -4 -17 7 -11 7 -173 -2 -363 -6 -151 -9 -171 -26 -173 -7 0 -24
-3 -38 -6 -14 -4 -38 -9 -54 -12 -16 -2 -33 -7 -38 -10 -4 -3 -8 39 -8 92 0
54 -2 95 -4 93 -2 -2 -7 -76 -10 -164 -9 -188 -12 -260 -21 -415 -10 -160 -10
-164 -20 -179 -6 -10 -4 -12 6 -6 11 6 11 5 2 -5 -6 -7 -9 -19 -6 -28 5 -11 3
-13 -8 -7 -11 7 -12 6 -3 -6 6 -8 10 -38 9 -68 -1 -40 -6 -56 -19 -63 -14 -8
-17 -7 -13 3 2 8 11 13 18 11 8 -2 10 0 6 5 -5 4 -12 8 -15 7 -4 -1 -13 6 -20
15 -11 14 -12 13 -3 -5 6 -12 6 -26 0 -35 -7 -12 -9 -12 -9 1 0 9 -3 11 -8 5
-4 -6 -14 -10 -22 -10 -8 0 -18 -4 -22 -10 -5 -6 -8 -5 -8 3 0 7 -5 10 -11 6
-6 -3 -25 -8 -42 -9 -18 -2 -61 -6 -97 -10 -36 -3 -114 -8 -175 -11 -74 -3
-113 -9 -120 -18 -5 -7 -13 -13 -18 -14 -14 -2 -42 -21 -32 -22 6 0 17 6 25
13 12 10 12 9 0 -6 -7 -10 -20 -17 -29 -15 -20 3 -41 -10 -41 -25 0 -7 4 -6
10 3 6 9 10 10 10 3 0 -6 -4 -14 -9 -17 -9 -6 -16 -38 -27 -136 -13 -122 -16
-49 -10 270 4 184 8 479 11 655 2 176 7 328 10 338 4 9 16 18 26 18 10 1 24 3
29 4 6 1 16 3 24 4 8 0 21 7 28 14 27 27 54 37 68 24 9 -8 11 -8 7 -1 -4 7 0
15 9 18 8 3 13 2 9 -3 -3 -5 2 -8 11 -7 9 1 20 10 25 18 5 9 17 15 26 14 10
-2 23 8 30 22 15 28 18 55 4 33 -12 -19 -39 -23 -48 -7 -12 19 -39 26 -53 13
-10 -9 -11 -9 -6 1 8 13 -4 16 -20 5 -5 -5 4 5 21 20 51 48 223 167 240 167 9
0 14 4 11 9 -7 11 83 73 95 65 5 -3 6 1 3 9 -5 14 41 42 49 29 2 -4 2 -1 1 5
-2 7 22 32 53 55 30 24 99 80 152 125 53 45 99 82 104 83 4 0 7 -25 7 -56z
m-970 -675 c0 -5 -6 -7 -12 -3 -10 6 -10 4 0 -8 10 -13 12 -61 10 -206 -2
-105 -6 -193 -9 -197 -4 -3 -19 -8 -35 -11 -32 -5 -60 -11 -101 -20 -16 -3
-33 -7 -40 -8 -7 -1 -15 -5 -19 -9 -4 -4 -13 1 -20 11 -13 16 -13 16 -14 0 0
-10 -4 -18 -10 -18 -5 0 -10 -5 -10 -11 0 -5 4 -7 10 -4 5 3 7 0 4 -8 -3 -8 0
-18 6 -22 8 -5 7 -11 -2 -23 -9 -11 -9 -14 -1 -9 8 5 16 -7 25 -35 15 -49 18
-415 6 -633 -4 -71 -8 -141 -8 -155 -1 -46 -11 -51 -121 -57 -57 -3 -106 -7
-108 -9 -2 -2 74 -4 170 -4 96 0 179 -4 186 -8 11 -7 13 -17 28 -112 4 -25 14
-51 23 -57 10 -8 11 -13 4 -13 -7 0 -12 -8 -12 -17 0 -15 2 -16 10 -3 6 10 8
-40 5 -145 -3 -145 -18 -884 -18 -980 l-1 -40 -355 0 -355 0 -2 120 c-1 66 -3
268 -5 448 -2 181 -7 331 -12 334 -4 2 -2 12 5 21 9 11 9 14 1 9 -9 -6 -12 36
-12 180 1 128 -3 189 -10 191 -6 2 -8 9 -4 15 3 7 -3 4 -14 -6 -11 -9 -23 -14
-27 -10 -4 4 -9 -3 -13 -15 -3 -12 -10 -19 -16 -15 -6 3 -7 1 -3 -5 4 -7 1
-12 -6 -12 -10 0 -10 -2 1 -9 7 -5 9 -11 4 -14 -5 -4 -11 -23 -12 -44 -4 -75
-7 -92 -14 -99 -10 -10 -9 -22 -12 561 -2 441 0 524 12 549 8 16 13 40 10 53
-3 18 -1 23 10 18 11 -3 13 -1 10 10 -4 8 -1 17 5 21 6 4 8 3 4 -4 -3 -6 -2
-13 4 -17 5 -3 10 1 10 9 0 26 20 28 29 4 9 -21 10 -21 11 -3 0 17 2 17 10 5
5 -8 10 -10 11 -5 0 6 2 17 4 26 1 9 -3 16 -11 16 -7 0 -11 -4 -8 -8 2 -4 0
-10 -6 -14 -6 -3 -10 4 -10 17 0 17 -3 19 -9 9 -5 -7 -11 -9 -14 -3 -4 5 37
33 91 62 235 129 417 233 542 309 74 46 145 84 157 84 11 1 19 6 16 11 -3 4 1
12 8 17 19 12 29 11 29 -2z m3785 -464 c28 -55 91 -163 141 -240 138 -213 579
-907 649 -1020 90 -146 87 -140 66 -159 -17 -15 -20 -16 -34 -1 -16 15 -13 50
4 40 4 -3 6 -12 3 -19 -3 -8 -1 -16 4 -20 13 -8 8 32 -6 46 -15 15 -24 5 -24
-26 0 -14 -4 -24 -7 -21 -4 2 -30 7 -57 10 -27 3 -69 10 -94 15 -25 5 -56 12
-70 14 -14 2 -97 18 -185 35 -88 17 -254 48 -370 70 -115 22 -246 47 -290 56
-198 39 -282 55 -312 60 -213 36 -270 57 -241 92 6 7 8 16 5 20 -4 3 -1 15 5
27 7 11 13 23 13 26 0 7 26 73 34 90 5 8 7 23 5 33 -1 9 3 17 9 17 7 0 6 4 -3
9 -16 11 -33 4 -25 -10 4 -5 1 -9 -4 -9 -15 0 -14 23 2 39 8 9 8 12 0 7 -6 -3
-13 0 -16 6 -2 7 -4 -7 -3 -32 2 -25 6 -53 10 -62 4 -10 6 -23 3 -30 -3 -7 -6
-3 -6 10 -1 13 -5 20 -11 17 -7 -4 -7 -12 0 -25 16 -31 -6 -33 -29 -3 -11 16
-21 22 -21 15 0 -7 11 -24 24 -37 15 -15 20 -27 14 -33 -5 -5 -10 -24 -10 -41
-1 -18 -4 -27 -8 -21 -4 6 -5 23 -3 38 4 22 2 24 -7 12 -10 -13 -11 -12 -5 5
11 33 11 39 -2 40 -6 0 -15 4 -20 9 -5 5 -3 6 5 2 14 -8 15 -5 6 19 -5 13 -8
14 -15 3 -5 -8 -7 4 -5 29 2 23 8 48 14 55 6 7 11 18 11 23 4 47 96 237 169
350 82 128 242 303 377 412 85 69 229 163 245 160 8 -1 38 -47 65 -102z
m-4735 -103 l0 -48 -60 -13 c-33 -7 -62 -13 -65 -13 -2 1 -22 -5 -42 -12 -21
-7 -44 -11 -50 -9 -7 3 -13 1 -13 -4 0 -8 -8 -10 -65 -14 -14 -1 -25 -5 -25
-9 0 -3 -6 -7 -12 -7 -7 0 -24 -3 -38 -8 -14 -4 -22 -5 -19 -1 4 4 376 183
387 185 1 1 2 -21 2 -47z m2787 11 c10 -8 11 -11 3 -7 -12 6 -11 3 2 -12 9
-10 17 -22 18 -26 0 -4 3 -13 5 -20 51 -136 65 -197 65 -275 0 -46 -4 -83 -9
-83 -4 0 -6 -23 -4 -51 2 -32 -1 -57 -9 -67 -10 -12 -10 -14 0 -8 9 5 12 -4
11 -36 -1 -36 -2 -39 -9 -18 -5 14 -7 -28 -5 -100 2 -76 0 -111 -4 -90 -7 29
-9 23 -11 -40 -1 -41 -3 -84 -4 -95 0 -11 4 -23 9 -27 6 -5 5 -8 -4 -8 -11 0
-11 -3 0 -16 8 -10 9 -18 2 -22 -5 -4 -10 -39 -10 -79 -1 -39 -4 -77 -8 -84
-6 -8 -4 -10 5 -4 9 6 11 4 5 -5 -5 -8 -10 -41 -11 -74 -7 -177 -16 -335 -21
-366 -3 -19 -6 -60 -7 -90 -1 -41 -5 -54 -16 -52 -11 3 -11 1 0 -13 17 -20 14
-96 -3 -107 -8 -5 -7 -8 3 -8 13 0 13 -1 0 -10 -9 -6 -17 -5 -22 3 -5 8 -8 6
-8 -6 0 -10 -5 -15 -10 -12 -6 4 -7 12 -3 18 4 7 0 6 -10 -2 -9 -7 -17 -10
-17 -5 0 5 -5 2 -10 -6 -6 -10 -10 -11 -10 -3 0 17 -66 11 -83 -7 -8 -9 -8
-11 0 -6 6 3 14 2 17 -3 4 -5 -7 -7 -24 -5 -20 4 -30 1 -30 -8 0 -10 -3 -9
-11 2 -8 12 -10 10 -5 -10 5 -24 5 -25 -11 -5 -15 20 -15 20 -11 -1 4 -16 1
-21 -13 -20 -10 1 -17 -3 -16 -9 1 -5 5 -9 10 -7 4 1 7 -2 7 -8 0 -5 -4 -10
-9 -10 -14 0 -31 26 -23 36 4 4 -1 2 -10 -5 -16 -12 -18 -11 -19 5 -1 18 -2
18 -6 1 -4 -15 -7 -16 -21 -5 -15 12 -16 11 -3 -4 7 -10 17 -15 22 -12 5 3 9
-3 9 -13 0 -15 2 -16 10 -3 5 8 10 12 11 8 1 -5 3 -12 4 -18 1 -5 3 -13 4 -16
0 -4 9 0 18 7 14 12 16 12 8 0 -6 -11 -4 -13 8 -8 19 7 22 -4 6 -20 -8 -8 -8
-13 0 -18 6 -3 10 -1 9 6 -2 6 3 14 11 17 8 2 11 0 8 -5 -4 -6 4 -9 18 -7 16
1 23 -2 18 -9 -4 -7 0 -8 12 -3 15 5 16 4 5 -9 -11 -13 -11 -16 1 -13 8 2 17
8 21 13 5 6 8 5 8 -3 0 -7 4 -11 9 -7 5 3 12 1 16 -5 4 -6 10 -8 14 -6 17 11
6 -31 -13 -48 -17 -15 -17 -18 -3 -13 9 4 17 2 17 -3 0 -13 -16 -13 -41 0 -14
8 -19 7 -19 -2 0 -8 -3 -9 -8 -3 -9 13 -27 17 -79 18 -33 1 -40 4 -31 14 5 7
15 10 21 6 6 -3 7 -1 3 5 -5 9 -13 8 -30 -3 -12 -8 -26 -12 -30 -8 -9 10 -46
11 -40 1 3 -4 1 -8 -5 -8 -5 0 -12 6 -14 13 -3 6 -6 2 -6 -11 -1 -13 -5 -20
-11 -17 -6 4 -8 11 -5 16 4 5 1 9 -4 9 -18 0 -12 -20 14 -45 26 -27 21 -33 -7
-11 -10 7 -18 19 -18 26 0 9 -4 10 -13 2 -8 -7 -18 -7 -27 -2 -16 10 -33 3
-25 -10 3 -5 12 -7 20 -3 11 4 13 1 9 -11 -3 -9 -10 -13 -15 -10 -5 3 -9 2 -8
-3 1 -4 1 -15 -1 -23 -1 -11 -4 -9 -10 5 -8 18 -9 18 -9 2 -1 -16 -10 -17 -93
-15 l-93 3 3 230 c3 221 7 342 17 525 2 47 6 138 9 202 2 64 7 122 11 128 3 5
0 10 -7 11 -10 0 -10 2 1 6 11 5 11 7 0 14 -8 5 -9 9 -4 9 7 0 10 149 10 428
l-1 427 -27 108 c-32 128 -33 144 -9 149 9 2 162 4 339 5 270 1 325 -1 340
-14z m-3030 -336 c8 -5 12 -28 11 -60 -1 -29 5 -90 14 -137 19 -107 17 -622
-2 -646 -11 -12 -3 -14 53 -14 73 0 83 -7 91 -65 25 -186 28 -272 23 -615 -4
-201 -7 -372 -7 -380 0 -13 -46 -15 -338 -18 -271 -3 -341 -1 -355 10 -24 18
-26 51 -33 518 -4 212 -10 389 -15 394 -4 5 -5 -1 -2 -13 3 -13 1 -21 -6 -21
-7 0 -10 4 -6 9 3 5 1 12 -4 15 -4 3 -8 -4 -7 -17 1 -17 -4 -22 -21 -21 -13 1
-20 -3 -17 -7 3 -5 10 -7 15 -4 5 4 9 2 9 -2 0 -5 -9 -14 -19 -20 -13 -8 -20
-24 -20 -45 0 -117 -15 -315 -24 -325 -10 -9 -15 1183 -6 1364 3 61 8 85 19
90 29 15 625 24 647 10z m2101 -44 c-1 -38 -7 -62 -18 -70 -13 -11 -13 -12 3
-13 14 0 17 -9 17 -57 0 -61 -10 -69 -12 -9 -1 24 -6 36 -16 36 -17 0 -17 3
28 -165 l32 -120 -6 -190 c-12 -363 -17 -491 -21 -585 -5 -101 -18 -563 -19
-642 -1 -46 -15 -63 -31 -38 -4 6 -13 7 -24 1 -9 -5 -111 -10 -227 -11 -115
-1 -256 -2 -314 -4 l-106 -2 2 230 c1 127 3 377 5 556 1 179 0 331 -4 337 -4
6 -4 14 0 16 8 5 8 332 0 377 -2 14 -5 30 -6 35 -1 6 -6 3 -11 -5 -13 -20 -13
-4 0 20 7 13 7 21 0 25 -6 4 -8 10 -6 14 3 4 1 34 -3 67 -6 37 -5 64 1 72 8 9
82 12 309 12 204 0 299 3 299 11 0 5 -4 7 -10 4 -5 -3 -10 3 -10 14 0 12 3 20
8 20 20 -3 32 2 27 12 -4 6 -14 8 -22 5 -11 -5 -14 2 -11 31 l3 38 70 17 c39
9 71 17 73 17 1 1 1 -25 0 -56z m2017 -583 c16 -45 37 -88 47 -97 10 -9 18
-13 18 -10 0 3 17 0 38 -7 20 -7 60 -17 87 -21 28 -5 55 -9 60 -11 18 -4 290
-56 315 -60 14 -2 45 -9 70 -14 25 -5 81 -16 125 -24 44 -9 90 -17 101 -20 12
-2 37 -7 55 -10 19 -3 59 -10 89 -16 30 -6 71 -13 90 -16 19 -3 51 -9 70 -14
19 -5 51 -11 70 -14 19 -3 44 -7 55 -9 31 -7 99 -20 105 -22 3 0 28 -5 55 -10
28 -5 52 -9 55 -10 24 -6 97 -18 102 -17 4 1 19 -20 32 -47 18 -35 22 -51 14
-59 -9 -9 -15 -9 -25 0 -11 9 -12 7 -6 -8 6 -17 5 -18 -11 -5 -13 11 -16 11
-14 1 2 -7 -3 -15 -11 -18 -8 -3 -11 0 -7 6 3 6 -14 -1 -39 -14 -32 -18 -45
-22 -45 -12 0 10 -2 10 -8 1 -8 -13 -88 -34 -97 -25 -3 3 -5 0 -5 -6 0 -7 -3
-11 -7 -11 -5 1 -10 0 -13 -1 -3 -1 -13 -3 -23 -5 -10 -2 -41 -10 -70 -19 -81
-24 -201 -58 -212 -60 -5 -1 -37 -10 -70 -20 -33 -10 -67 -19 -75 -21 -8 -2
-28 -8 -45 -15 -16 -6 -31 -11 -33 -10 -1 1 -28 -6 -60 -15 -31 -10 -64 -19
-72 -21 -8 -2 -71 -19 -140 -39 -69 -20 -135 -38 -148 -41 -13 -2 -44 -12 -69
-20 -25 -9 -55 -17 -66 -20 -11 -2 -60 -15 -110 -29 -94 -27 -109 -28 -113 -4
-3 15 -11 46 -20 82 -3 12 -6 32 -7 45 -1 12 -4 22 -7 22 -3 0 -7 10 -8 23 -1
12 -4 42 -6 67 -3 25 -6 70 -7 100 -1 30 -6 61 -13 69 -8 11 -8 13 0 8 8 -4
11 11 10 49 -1 30 2 60 5 66 4 7 3 20 -2 30 -5 10 -6 18 -1 18 5 0 9 15 10 33
0 17 3 44 5 59 3 17 0 25 -6 21 -6 -4 -7 -1 -1 8 12 20 15 41 7 59 -3 8 -7 17
-8 20 -12 51 -17 60 -28 53 -8 -5 -8 -2 1 9 9 11 10 18 2 23 -5 3 -15 26 -21
50 -6 25 -15 43 -18 40 -4 -2 -6 6 -5 18 1 12 3 28 3 35 1 6 7 12 14 12 6 0
25 -36 42 -80z m1450 -667 c-6 -28 -6 -28 8 2 l13 30 12 -33 c15 -43 15 -45 0
-48 -19 -3 -125 -32 -758 -212 -311 -88 -577 -164 -592 -167 -28 -7 -28 -9
-19 68 1 4 6 7 12 7 5 0 8 -4 5 -8 -3 -5 7 -8 22 -7 18 1 28 7 31 21 4 19 4
19 12 -1 l8 -20 0 20 c1 17 3 17 11 5 9 -13 10 -13 10 0 0 13 1 13 10 0 8 -12
10 -12 11 5 l0 20 9 -20 c7 -16 9 -17 9 -3 1 9 5 20 11 23 5 3 7 0 4 -8 -3 -8
0 -18 6 -22 6 -3 10 -3 9 2 -1 4 -1 15 1 23 1 11 4 9 10 -5 8 -18 9 -18 10 5
1 23 2 23 10 5 l9 -20 1 20 1 20 9 -20 c7 -17 9 -17 9 -2 1 9 6 17 12 17 5 0
7 -6 4 -12 -4 -7 0 -5 8 5 11 14 16 15 20 5 3 -8 6 -5 6 6 1 20 1 20 17 0 8
-10 12 -13 8 -5 -5 11 -2 13 15 8 19 -5 20 -3 9 11 -11 13 -11 14 1 7 20 -11
62 -15 56 -5 -3 5 -12 7 -19 4 -8 -3 -17 0 -22 7 -4 8 -3 10 5 5 6 -4 19 -2
28 6 9 7 14 8 10 2 -4 -7 0 -15 8 -18 10 -4 19 2 25 17 8 20 9 20 10 2 0 -13
3 -16 8 -8 4 7 16 12 27 12 47 1 58 5 63 25 5 19 6 19 13 0 7 -19 8 -19 8 1 1
17 3 17 11 5 8 -12 10 -12 11 5 l0 20 9 -20 c5 -11 9 -14 9 -7 1 8 6 10 14 6
7 -5 6 0 -3 11 -14 17 -14 18 9 5 21 -11 23 -10 18 3 -5 12 0 14 20 11 15 -3
31 -8 36 -11 6 -3 7 -1 3 6 -5 8 0 10 16 7 22 -4 67 19 60 30 -2 3 -1 9 3 12
4 4 6 3 5 -3 -5 -25 2 -28 16 -5 8 14 13 17 10 8 -3 -10 0 -20 6 -24 7 -5 8
-2 3 6 -6 10 -4 12 10 6 16 -6 16 -4 4 10 -13 16 -12 16 9 5 19 -10 22 -9 22
6 0 15 2 16 10 3 8 -12 10 -12 11 5 l0 20 9 -20 c6 -14 9 -16 10 -5 2 8 2 19
1 23 -1 5 3 6 9 2 6 -3 8 -10 5 -15 -6 -10 15 -8 33 3 7 5 10 12 8 16 -3 4 1
8 9 8 8 0 12 -4 10 -8 -3 -4 2 -6 11 -5 9 1 20 10 25 19 5 9 16 14 24 11 8 -4
12 -11 8 -18 -4 -7 -1 -7 9 1 8 7 17 11 20 8 3 -3 11 2 19 12 12 15 12 16 -1
8 -21 -13 -39 -15 -45 -5 -3 5 3 7 12 5 10 -1 23 2 29 6 7 6 16 4 24 -6 13
-16 30 -11 30 8 0 8 -3 8 -9 -1 -6 -11 -10 -10 -15 4 -4 10 -4 15 0 11 4 -4
14 -1 22 6 13 9 14 9 8 0 -4 -8 -2 -13 4 -13 6 0 8 -5 4 -12 -5 -9 -2 -9 9 1
9 7 17 21 18 30 0 12 2 11 9 -4 6 -14 9 -16 10 -5 2 8 2 18 1 22 0 3 7 5 17 3
9 -1 23 2 30 8 6 5 12 6 12 2 0 -4 8 -1 17 6 9 8 14 9 11 4 -4 -6 1 -16 11
-22 14 -9 17 -7 19 11 1 17 -1 18 -9 6 -9 -13 -10 -13 -6 0 2 8 10 14 16 13 6
-2 11 2 11 7 0 6 2 10 5 10 3 0 3 -12 0 -27z m-6741 -569 c33 -8 91 -24 128
-35 l66 -19 -20 -49 -21 -48 -106 49 c-187 88 -213 144 -47 102z m-371 -111
c-28 -10 -8 -36 97 -127 61 -53 111 -99 111 -103 0 -8 -37 -21 -106 -37 -28
-7 -29 -6 -10 7 18 14 17 18 -45 82 -36 36 -83 77 -106 91 -55 32 -82 62 -63
68 39 14 125 32 129 28 3 -3 -1 -7 -7 -9z m2122 -73 c-11 -12 -15 -24 -9 -29
24 -22 206 -163 237 -184 l36 -25 -62 -16 c-107 -30 -105 -29 -84 -13 9 8 17
19 17 25 0 6 -59 57 -130 113 -72 56 -128 105 -125 107 6 6 12 8 65 18 19 3
42 10 50 15 23 13 25 11 5 -11z m1096 -34 c-14 -16 10 -38 157 -145 118 -87
132 -94 172 -79 24 9 24 9 5 -12 -18 -20 -18 -21 23 -58 23 -22 45 -36 49 -33
4 3 2 -1 -5 -10 -9 -12 -8 -20 3 -37 31 -43 -4 -28 -104 44 -100 74 -103 75
-137 64 -20 -7 -38 -10 -40 -7 -3 3 4 8 16 12 12 4 20 13 18 23 -2 9 -62 61
-133 115 -120 90 -162 129 -122 114 9 -3 19 -2 22 4 4 5 10 7 14 5 4 -3 12 -1
19 3 6 3 21 7 32 8 16 1 19 -1 11 -11z m-2634 -133 c129 -112 143 -125 137
-135 -3 -5 -2 -8 3 -7 20 3 34 -2 28 -11 -3 -5 0 -10 7 -11 14 0 -41 -22 -86
-33 -27 -7 -28 -6 -16 9 13 15 10 21 -25 54 -22 20 -38 40 -37 46 2 5 0 7 -3
3 -7 -7 -147 100 -160 122 -5 7 36 25 67 29 4 1 42 -29 85 -66z m503 -264 c19
-17 45 -38 57 -46 13 -8 20 -20 16 -26 -3 -5 -2 -8 3 -4 5 3 22 -5 38 -18 l29
-23 -43 -12 c-34 -9 -45 -9 -51 2 -5 7 -9 9 -9 5 0 -4 -19 10 -42 32 -24 21
-56 49 -71 61 -17 14 -26 28 -22 37 3 10 1 13 -8 10 -20 -8 -77 41 -77 66 0
18 -2 19 -10 7 -8 -13 -11 -13 -22 -1 -8 9 -9 11 -1 7 6 -3 14 -2 18 4 8 13
150 -60 195 -101z m-1090 35 c0 -9 -11 -14 -32 -14 -18 0 -163 -9 -322 -20
-159 -11 -293 -17 -297 -14 -20 12 -7 20 34 22 23 2 107 7 187 12 80 5 199 12
265 16 66 4 121 7 122 8 11 9 43 2 43 -10z m-44 -110 c3 -19 3 -39 -2 -43 -12
-11 -166 -22 -180 -13 -6 4 -14 22 -17 40 -8 42 10 51 115 51 l77 1 7 -36z
m2875 -164 c112 -50 218 -97 234 -105 17 -7 64 -29 105 -48 41 -19 102 -47
135 -62 33 -15 103 -48 155 -72 52 -25 138 -66 190 -90 159 -75 594 -294 610
-307 37 -32 111 -68 128 -61 9 3 0 -12 -22 -34 -21 -21 -36 -44 -32 -49 3 -5
0 -12 -8 -15 -13 -5 -56 -84 -56 -104 0 -11 -81 24 -92 40 -7 11 15 91 30 110
5 7 12 25 16 41 7 29 -4 45 -30 46 -12 0 -52 -84 -79 -167 -9 -29 -21 -53 -26
-53 -5 0 -43 16 -85 35 -41 19 -77 35 -79 35 -1 0 -160 71 -351 158 -436 199
-714 332 -714 344 0 5 14 41 30 80 17 39 28 73 26 75 -3 3 -22 11 -42 18 l-38
13 -29 -67 c-16 -36 -30 -67 -31 -68 -2 -3 -150 69 -163 79 -9 7 -7 21 7 59
11 27 20 52 20 54 0 3 -13 5 -29 5 -20 0 -35 -8 -45 -22 -22 -30 -20 -41 10
-77 l25 -30 -73 33 c-85 39 -87 47 -43 139 28 60 109 157 130 157 7 0 104 -41
216 -90z m-2833 29 c-1 -23 -3 -27 -10 -15 -5 8 -15 13 -24 9 -12 -4 -12 -8
-2 -22 8 -11 5 -10 -10 3 -17 14 -22 16 -22 5 0 -11 -2 -11 -10 1 -9 14 -14 7
-11 -15 1 -5 -5 -3 -12 6 -11 15 -15 15 -32 3 -18 -13 -18 -14 4 -14 16 0 21
-5 19 -17 -4 -20 -59 -35 -80 -22 -9 6 -2 9 20 9 17 0 32 5 32 11 0 7 -11 9
-26 6 -19 -3 -28 1 -34 17 -8 20 -9 20 -10 1 -1 -17 -3 -17 -8 -4 -5 12 -13
14 -27 8 -15 -6 -16 -8 -4 -8 9 -1 22 -7 28 -15 10 -12 8 -17 -8 -25 -25 -14
-71 -14 -71 0 0 6 8 8 18 5 9 -3 24 -1 32 4 12 8 9 10 -12 10 -34 0 -59 10
-53 21 3 4 -4 6 -16 4 -13 -3 -26 -10 -31 -17 -6 -10 -8 -10 -8 0 0 7 -5 10
-11 6 -8 -4 -8 -9 0 -17 17 -17 -7 -37 -45 -37 -19 0 -34 5 -34 11 0 6 9 9 19
6 10 -2 25 -1 32 4 10 6 5 9 -16 9 -22 0 -26 3 -15 10 8 5 12 12 8 15 -3 3
-12 -1 -21 -9 -12 -12 -16 -13 -20 -2 -5 13 -63 10 -72 -4 -3 -4 11 -4 30 0
32 7 35 6 35 -15 0 -48 -86 -47 -95 1 -2 10 -4 21 -5 24 0 3 -16 -13 -35 -35
-18 -22 -37 -36 -41 -33 -4 4 -1 15 7 24 13 16 12 17 -9 12 -12 -4 -20 -2 -16
3 3 5 15 9 27 10 12 0 16 3 9 6 -7 3 -20 2 -30 -3 -9 -4 -24 -6 -32 -5 -13 2
-13 0 -1 -8 23 -15 -5 -41 -45 -41 -27 0 -32 4 -31 20 1 13 8 20 21 20 11 0
17 3 13 6 -3 3 -19 3 -36 -1 -21 -4 -28 -11 -24 -21 8 -22 -27 -45 -51 -32
-15 8 -16 12 -5 19 12 7 12 9 -1 10 -57 6 -87 3 -103 -10 -13 -11 -20 -12 -29
-3 -18 18 -38 15 -39 -5 -1 -16 -2 -16 -6 -2 -5 21 -53 20 -53 -1 0 -12 -2
-12 -9 -1 -6 9 -11 10 -15 2 -4 -6 -13 -8 -19 -4 -18 11 -77 13 -77 2 0 -6 5
-7 12 -3 7 5 8 3 3 -6 -6 -10 -11 -10 -20 4 -11 14 -14 14 -18 2 -6 -14 -30
-16 -43 -3 -11 10 -26 8 -19 -2 3 -5 0 -13 -6 -17 -8 -4 -9 -3 -5 4 4 7 2 12
-4 12 -6 0 -8 5 -4 12 4 7 3 8 -5 4 -6 -4 -9 -11 -7 -15 3 -4 -1 -8 -9 -8 -8
0 -12 4 -9 9 3 4 0 8 -5 8 -6 0 -11 -8 -12 -17 0 -16 -1 -16 -8 1 -7 19 -8 19
-14 1 -7 -17 -8 -17 -26 -1 -18 17 -20 16 -30 -1 -6 -10 -11 -13 -11 -6 0 6
-8 10 -17 8 -10 -1 -17 -8 -15 -15 1 -6 -2 -9 -8 -5 -6 3 -7 11 -4 17 4 6 1 8
-7 6 -8 -3 -13 -11 -11 -17 1 -7 -2 -10 -8 -6 -6 3 -8 11 -5 16 4 5 2 9 -3 9
-6 0 -13 -7 -16 -16 -4 -9 -9 -14 -13 -10 -4 3 -16 -3 -28 -14 -16 -15 -22
-17 -22 -6 0 8 4 14 8 13 4 -1 6 3 6 8 -1 6 -8 9 -15 7 -8 -2 -11 1 -7 7 3 7
0 8 -9 5 -9 -3 -16 -10 -16 -16 0 -5 4 -7 8 -4 5 3 9 -2 9 -10 0 -10 -4 -11
-10 -5 -7 7 -16 7 -29 0 -12 -6 -18 -6 -18 1 0 5 7 10 15 10 8 0 15 4 15 10 0
12 -22 9 -32 -5 -5 -6 -8 -6 -8 1 0 12 -38 13 -57 1 -6 -4 -15 -3 -18 3 -4 7
-11 7 -18 2 -7 -5 -25 -8 -40 -7 -22 2 -27 -2 -22 -14 3 -11 0 -10 -10 3 -11
14 -15 16 -15 5 0 -11 -2 -12 -9 -1 -4 8 -12 14 -16 14 -4 0 -12 -6 -16 -14
-7 -11 -9 -10 -9 1 0 11 -4 9 -15 -5 -8 -10 -15 -15 -15 -10 0 5 -6 3 -13 -3
-10 -8 -14 -7 -14 3 0 8 8 13 19 11 10 -2 16 0 13 5 -7 12 -35 6 -46 -11 -7
-11 -9 -10 -9 6 0 17 -2 17 -10 5 -5 -8 -10 -10 -10 -5 0 6 -5 3 -10 -5 -9
-13 -10 -13 -10 0 0 13 -1 13 -10 0 -9 -13 -10 -13 -10 0 0 13 -1 13 -10 0 -9
-13 -10 -13 -10 0 0 11 -4 10 -12 -4 -11 -19 -11 -19 -24 -1 -8 11 -14 13 -14
6 0 -7 -5 -9 -12 -5 -23 14 -79 10 -88 -6 -8 -12 -10 -12 -10 5 -1 11 -4 15
-6 8 -3 -7 -12 -9 -21 -6 -12 5 -14 3 -8 -8 6 -11 5 -12 -5 -2 -11 10 -17 10
-29 0 -12 -9 -13 -9 -7 1 4 7 1 12 -9 12 -10 0 -13 -5 -9 -12 5 -7 3 -8 -7 -2
-25 15 -41 14 -35 -4 5 -13 2 -12 -9 2 -11 15 -15 16 -16 5 0 -11 -2 -11 -6 0
-5 11 -7 11 -14 0 -7 -12 -9 -11 -9 1 0 13 -1 13 -10 0 -8 -13 -10 -13 -10 -1
0 11 -4 9 -15 -5 -10 -12 -13 -14 -10 -3 5 12 -2 15 -32 14 -21 -1 -44 -4 -51
-9 -7 -4 -12 -2 -13 6 0 10 -2 11 -6 0 -4 -10 -8 -10 -21 0 -13 11 -14 11 -7
-1 5 -10 4 -12 -3 -7 -13 8 -16 42 -4 49 4 3 57 7 117 11 61 3 133 9 160 11
28 3 199 14 380 25 182 11 355 22 385 25 30 2 100 7 155 10 55 3 125 8 155 10
30 3 206 14 390 25 184 11 353 22 375 25 22 2 105 7 185 11 80 4 147 8 149 10
2 2 39 4 82 4 l78 0 -1 -31z m-2406 -20 c2 -24 -1 -43 -7 -45 -6 -3 -51 -6
-101 -7 l-89 -2 0 40 c0 36 3 40 30 46 17 4 60 7 96 8 l67 1 4 -41z m2488
-103 c0 -3 18 -91 40 -196 22 -106 38 -196 34 -201 -3 -5 -12 -9 -20 -9 -8 0
-14 -5 -14 -10 0 -12 29 -157 36 -182 6 -20 -15 -25 -161 -33 -55 -3 -118 -8
-140 -10 -22 -2 -69 -7 -105 -10 -87 -8 -98 -10 -107 -19 -7 -7 230 0 307 9
53 6 209 9 214 4 3 -3 7 -20 10 -39 3 -19 13 -72 23 -118 9 -45 14 -84 12 -86
-2 -2 -78 -9 -169 -15 -91 -7 -185 -14 -210 -16 -25 -2 -88 -7 -140 -10 -112
-7 -194 -13 -270 -20 -111 -9 -316 -26 -395 -31 -33 -2 -89 -6 -125 -9 -36 -2
-103 -7 -150 -10 -94 -7 -177 -12 -228 -14 -22 -1 -32 -5 -30 -13 5 -13 12
-13 128 -3 104 9 211 16 270 18 30 1 61 6 68 10 7 5 12 3 12 -3 0 -6 4 -9 9
-6 10 6 84 12 276 21 66 3 143 7 170 10 109 10 219 18 460 31 72 3 140 8 153
9 17 2 22 -2 17 -13 -4 -11 -2 -12 7 -5 23 18 45 22 45 8 0 -7 -8 -12 -19 -10
-11 3 -18 -2 -18 -12 0 -12 3 -13 14 -3 12 9 15 7 14 -12 -1 -13 -8 -31 -16
-40 -14 -16 -13 -18 6 -18 12 0 22 -4 22 -10 0 -5 -22 -10 -50 -10 -39 0 -50
3 -50 16 0 10 6 14 14 11 8 -3 22 3 32 14 16 18 16 19 -9 19 -15 0 -27 -5 -27
-11 0 -5 -5 -7 -12 -3 -7 4 -8 3 -4 -4 10 -16 -30 -52 -57 -52 -13 0 -28 -5
-35 -12 -9 -9 -13 -6 -20 12 -7 19 -10 20 -15 7 -3 -9 0 -18 9 -21 9 -3 13
-10 9 -16 -8 -12 -55 29 -55 49 0 11 -4 9 -16 -7 -8 -12 -27 -23 -42 -23 -23
-2 -24 -2 -5 -6 12 -2 31 0 41 6 15 8 23 7 31 -3 9 -10 8 -15 -4 -20 -8 -3
-15 0 -15 6 0 6 -3 9 -6 5 -14 -13 7 -27 26 -17 15 8 21 6 30 -10 9 -16 8 -22
-6 -27 -9 -3 -19 0 -24 6 -5 10 -9 9 -13 -3 -4 -9 -16 -15 -30 -14 -18 2 -23
7 -20 23 3 15 0 13 -12 -8 -9 -15 -20 -25 -26 -21 -6 3 -6 10 -1 17 5 7 12 21
15 32 l7 20 -15 -20 c-9 -11 -23 -29 -31 -40 -15 -20 -15 -19 -10 3 4 23 4 23
-15 6 -21 -19 -26 -64 -6 -64 7 0 19 6 25 12 10 10 15 10 23 -2 9 -13 10 -12
5 3 -5 16 -2 19 27 21 6 1 14 4 17 8 3 4 12 3 20 -2 13 -8 12 -10 -2 -10 -10
0 -18 -4 -18 -10 0 -5 6 -7 13 -4 7 2 24 0 38 -5 20 -8 18 -9 -18 -7 -23 2
-45 1 -48 -2 -12 -12 -105 -11 -105 1 0 8 -3 7 -9 -2 -11 -18 -91 -24 -91 -7
0 6 -5 4 -10 -4 -7 -12 -11 -10 -20 10 -10 23 -10 23 -6 3 3 -16 -1 -23 -12
-24 -10 -1 -32 -3 -51 -5 -31 -4 -32 -2 -20 14 11 14 9 13 -9 -2 -12 -11 -22
-17 -22 -14 0 3 -18 2 -39 -2 -25 -4 -44 -3 -52 4 -9 8 -10 8 -5 -1 7 -13 6
-13 -151 -16 -40 -1 -73 -5 -73 -8 0 -3 -31 -5 -70 -5 -38 1 -70 -1 -70 -4 0
-3 -17 -6 -37 -7 -21 -1 -74 -4 -118 -7 -44 -3 -86 -5 -93 -5 -7 -1 -11 -4 -9
-8 3 -5 -25 -8 -61 -9 -69 0 -293 -12 -362 -19 -39 -4 -226 -13 -407 -20 -51
-2 -96 -5 -100 -7 -16 -9 -36 -2 -40 12 -4 13 -3 13 6 0 10 -13 11 -13 11 0 0
13 1 13 10 0 5 -8 10 -10 10 -4 0 12 -19 32 -32 33 -20 2 -5 16 17 15 13 -1
22 2 19 7 -2 4 -12 5 -21 2 -11 -4 -14 -2 -9 5 4 7 -1 10 -13 7 -11 -2 -22 3
-25 11 -5 13 -36 9 -34 -4 2 -20 -4 -32 -22 -42 -15 -8 -20 -8 -18 1 2 7 -5
15 -14 17 -10 2 -18 -2 -18 -8 0 -6 5 -8 12 -4 7 4 8 3 4 -5 -4 -6 -11 -9 -16
-6 -10 6 -32 -20 -23 -29 4 -4 -1 -4 -11 0 -17 6 -17 8 -2 16 14 8 15 12 4 26
-12 15 -11 16 5 3 20 -16 22 -9 5 18 -11 18 -13 18 -25 3 -7 -9 -13 -12 -13
-6 0 6 7 17 15 24 8 7 13 15 11 19 -3 4 4 7 14 7 10 0 17 -3 16 -6 -2 -3 0
-14 5 -25 6 -15 8 -11 7 17 -2 32 -28 90 -28 60 0 -6 -6 -9 -14 -6 -8 3 -13
13 -11 22 1 9 0 11 -2 4 -3 -7 -8 -10 -12 -8 -4 3 -7 -23 -8 -57 -1 -46 3 -64
15 -75 10 -7 12 -11 5 -8 -8 4 -13 -5 -15 -26 -3 -31 -6 -33 -45 -36 l-42 -3
-5 43 c-10 86 -15 218 -7 222 4 3 54 7 112 11 57 3 115 8 129 10 22 4 80 9
230 20 19 2 48 3 64 4 20 1 27 4 20 11 -13 13 -37 14 -159 6 -55 -4 -131 -9
-170 -11 -38 -2 -107 -7 -152 -11 l-81 -6 -6 73 c-12 149 -12 180 -2 188 6 5
70 12 141 15 120 6 229 15 265 22 8 1 21 3 28 3 6 1 12 5 12 10 0 5 -21 8 -47
6 -134 -9 -323 -19 -363 -20 l-45 0 -9 128 c-6 85 -13 127 -21 127 -21 0 -43
25 -49 58 -3 21 -2 31 4 27 6 -3 10 -2 10 4 0 5 -4 11 -9 13 -5 2 -11 39 -12
83 l-2 80 35 1 c20 1 44 7 55 13 17 10 17 10 -2 12 -11 1 21 5 70 9 51 5 94 4
99 -1 15 -14 99 -10 120 6 13 10 24 11 37 5 10 -6 28 -10 41 -10 18 0 20 2 8
10 -12 8 -12 10 5 11 11 0 34 2 50 4 17 3 85 7 153 9 92 4 121 2 115 -7 -4 -7
0 -6 10 2 9 7 24 11 32 7 9 -3 13 -2 10 4 -4 6 7 11 24 11 17 1 43 2 59 4 177
13 233 17 300 20 42 2 111 6 152 9 41 3 113 8 160 11 162 9 255 16 295 20 22
3 110 7 195 10 85 3 205 10 265 15 177 14 224 16 217 6 -3 -6 3 -6 14 -1 10 4
35 10 54 12 144 16 145 16 147 48 2 45 2 45 18 45 8 0 15 -2 15 -4z m277 -44
c-16 -17 -14 -21 31 -64 93 -89 202 -178 219 -178 32 0 -1 -18 -73 -39 -89
-26 -103 -26 -73 -1 l24 20 -75 69 c-41 39 -98 89 -127 113 -29 24 -52 47 -53
51 0 5 3 6 8 4 4 -3 34 5 67 18 33 12 62 23 64 24 2 0 -3 -7 -12 -17z m2173
-121 c82 -29 147 -58 155 -71 4 -6 10 -8 15 -5 5 3 19 1 30 -5 17 -9 18 -14 7
-30 -6 -11 -16 -20 -21 -20 -6 0 -5 5 2 12 7 7 12 16 12 22 0 6 -5 5 -12 -2
-7 -7 -19 -12 -27 -12 -13 0 -13 2 -2 9 9 6 4 10 -17 13 -17 2 -29 1 -26 -4 3
-4 -2 -8 -11 -8 -9 0 -13 4 -10 10 4 6 -10 8 -38 4 -32 -5 -56 -1 -95 16 -52
22 -52 23 -52 67 0 35 3 43 13 36 6 -6 41 -20 77 -32z m2070 -667 c14 -7 42
-20 63 -30 l37 -16 -30 -31 c-16 -17 -32 -38 -35 -47 -4 -12 -13 -16 -30 -12
-14 2 -25 8 -25 13 0 5 -3 8 -7 7 -5 -1 -25 6 -47 15 -21 9 -41 17 -44 17 -5
0 -143 69 -150 75 -7 6 18 54 43 83 l27 32 87 -46 c47 -26 97 -53 111 -60z
m-5962 -515 c24 6 37 7 86 2 7 0 33 -27 57 -58 24 -32 47 -62 51 -68 21 -25
96 -130 95 -131 -3 -3 -200 -15 -302 -19 -55 -2 -101 -5 -102 -6 -10 -6 -30
-4 -42 5 -11 8 -13 8 -7 -1 5 -9 -1 -13 -19 -13 -14 0 -24 4 -20 9 3 5 0 13
-6 17 -7 4 -9 3 -5 -4 3 -6 2 -13 -4 -17 -9 -6 -15 8 -11 29 1 5 -5 4 -13 -4
-18 -14 -22 -25 -6 -15 6 3 10 1 10 -4 0 -6 -4 -12 -10 -12 -5 -1 -16 -2 -22
-3 -18 -2 -28 26 -16 42 6 6 7 12 3 12 -4 0 -1 8 6 17 12 15 12 16 -1 8 -20
-13 -33 -13 -42 0 -14 19 -8 26 15 15 20 -10 20 -10 5 3 -10 8 -18 20 -19 28
0 8 -4 4 -10 -9 -6 -15 -5 -30 1 -43 8 -14 7 -19 -2 -19 -8 0 -9 -3 -3 -8 6
-4 11 -16 12 -28 2 -18 -3 -21 -37 -20 -21 0 -38 3 -38 6 2 24 -6 30 -12 10
-8 -25 -8 -25 -9 -2 -1 13 -5 21 -10 17 -6 -3 -8 -14 -6 -24 2 -10 -3 -18 -11
-18 -8 0 -10 5 -6 11 5 6 7 17 6 24 -1 6 -3 22 -4 35 -2 19 -3 18 -10 -8 l-9
-30 2 30 c2 28 5 30 47 32 32 2 39 0 25 -6 -11 -4 -26 -6 -32 -4 -8 3 -13 -3
-12 -18 1 -21 2 -22 7 -4 l5 20 8 -20 c6 -17 8 -17 8 -2 1 9 8 17 16 17 8 0
15 -8 15 -17 0 -15 -2 -16 -10 -3 -5 8 -10 11 -10 5 0 -5 5 -17 10 -25 9 -13
10 -13 10 0 0 13 1 13 10 0 8 -13 10 -13 10 -1 0 11 4 9 16 -5 14 -18 15 -18
4 4 -6 13 -9 30 -6 37 3 8 1 17 -4 20 -6 4 -10 17 -10 30 0 13 -5 27 -10 30
-6 4 -8 10 -5 15 3 5 1 12 -5 15 -8 5 -7 11 1 21 10 12 9 13 -5 8 -9 -3 -16
-11 -17 -18 0 -6 -4 -2 -9 9 -7 17 -9 17 -9 3 -1 -10 -5 -18 -10 -18 -6 0 -8
9 -6 20 2 11 0 22 -4 25 -5 2 -8 -5 -7 -17 0 -12 -4 -23 -11 -25 -8 -3 -10 5
-7 24 2 15 1 23 -3 17 -5 -6 -16 -10 -26 -8 -9 1 -15 -2 -12 -6 3 -5 1 -11 -5
-15 -5 -3 -10 3 -10 14 0 12 5 22 10 22 6 1 14 2 19 3 5 0 12 4 16 8 4 3 -1 5
-12 3 -10 -2 -24 -4 -30 -4 -17 -1 -17 -46 0 -60 8 -6 16 -10 18 -8 2 1 2 0 1
-3 -2 -3 -8 -6 -13 -6 -5 -1 -10 -3 -11 -4 -2 -1 -21 -3 -44 -4 -26 -2 -41 2
-41 9 0 6 6 12 13 12 7 0 11 -4 8 -9 -3 -4 0 -8 5 -8 6 0 11 1 12 3 9 46 9 88
0 83 -6 -4 -9 -12 -6 -17 4 -5 1 -17 -5 -26 -9 -15 -10 -14 -4 7 6 22 5 23 -9
11 -9 -7 -14 -17 -11 -22 3 -5 0 -8 -8 -7 -9 2 -12 -6 -11 -26 2 -29 -7 -31
-11 -2 -1 8 -11 25 -22 38 -13 16 -14 19 -2 10 14 -12 19 -10 33 15 15 26 15
26 9 3 -6 -22 -5 -23 9 -11 9 7 14 18 10 25 -3 6 -3 8 2 4 4 -4 14 -3 21 3 17
14 29 -11 21 -41 -3 -11 -1 -23 4 -26 7 -4 14 41 10 68 0 4 7 6 17 6 18 -1
171 10 237 17 64 7 198 18 223 18 12 1 22 6 23 12 0 6 3 5 5 -2 3 -7 15 -9 32
-4z m-1104 -96 c2 -10 6 -72 8 -138 l3 -120 -37 -3 c-36 -3 -37 -3 -42 40 -11
91 -13 227 -3 231 33 11 66 6 71 -10z m2898 -236 c3 -22 0 -22 -147 -34 -196
-15 -268 -16 -260 -3 3 6 -1 10 -10 10 -11 0 -15 5 -12 14 3 8 1 17 -6 20 -12
4 -2 7 46 10 12 1 33 -5 47 -13 23 -14 24 -14 12 1 -17 21 -5 28 56 34 65 7
94 12 100 18 3 3 11 1 18 -5 11 -9 15 -7 20 5 5 12 10 14 19 6 10 -9 19 -6 34
9 13 13 21 16 21 9 0 -10 3 -9 9 1 7 11 9 11 14 0 4 -9 6 -7 7 6 2 21 26 -46
32 -88z m-1445 5 c7 -12 8 -24 2 -33 -7 -12 -9 -12 -9 0 0 11 -4 9 -15 -5 -9
-11 -13 -13 -10 -4 4 12 -3 15 -35 15 -29 0 -40 -4 -41 -15 0 -10 -3 -9 -9 5
-5 11 -9 14 -9 6 -1 -11 -4 -11 -18 0 -11 10 -14 10 -9 2 4 -7 2 -13 -3 -13
-6 0 -11 5 -11 10 0 6 -5 10 -11 10 -5 0 -7 -5 -3 -12 5 -7 3 -8 -6 -3 -13 8
-112 9 -197 2 -26 -2 -43 1 -44 7 0 6 -4 2 -9 -9 -5 -11 -9 -15 -9 -8 -1 12
-18 12 -38 0 -6 -4 -15 -2 -19 4 -4 8 -9 7 -15 -2 -7 -11 -9 -11 -9 -1 0 8 -5
10 -12 5 -17 -10 -39 -13 -34 -4 3 4 -4 7 -15 7 -10 0 -19 -5 -19 -11 0 -5 -5
-3 -10 5 -5 8 -10 10 -10 4 0 -6 -21 -9 -55 -7 -30 1 -57 -2 -60 -7 -8 -13
-25 -3 -25 13 0 7 4 6 10 -3 5 -8 10 -10 10 -4 0 7 39 14 103 18 56 4 131 9
167 12 468 39 463 39 477 16z"/>
<path d="M11275 12640 c-165 -27 -308 -49 -317 -49 -10 -1 -18 -9 -18 -18 0
-15 2 -16 10 -3 9 13 10 13 10 0 0 -13 1 -13 10 0 7 12 9 10 7 -7 -1 -18 -4
-20 -16 -10 -11 10 -13 9 -9 -3 6 -18 87 -16 218 5 85 14 158 24 215 30 35 4
219 36 221 38 7 8 -11 67 -20 66 -6 0 -146 -23 -311 -49z"/>
<path d="M11880 12588 c-63 -9 -131 -20 -150 -22 -19 -3 -78 -12 -130 -21 -52
-9 -223 -36 -380 -61 -372 -59 -383 -62 -376 -82 5 -15 4 -15 -8 1 -7 9 -17
17 -21 17 -4 0 -2 -6 4 -14 16 -20 -10 -41 -29 -23 -8 6 -6 2 4 -10 17 -21 43
-23 31 -3 -3 5 -1 11 5 15 5 3 10 -1 10 -10 0 -11 6 -15 18 -11 9 3 44 8 77
11 33 4 101 13 150 20 50 8 110 17 135 20 25 4 142 21 260 39 118 19 222 34
230 35 8 0 79 11 158 23 l142 22 0 33 c0 17 -3 33 -7 36 -5 2 -60 -5 -123 -15z"/>
<path d="M11330 12209 c-141 -24 -147 -26 -132 -41 7 -7 12 -17 12 -22 0 -6
-7 0 -16 12 -9 13 -22 21 -29 18 -8 -3 -16 3 -18 12 -4 16 -5 15 -6 0 0 -10
-8 -18 -16 -18 -8 0 -15 -4 -15 -10 0 -12 22 -9 32 5 5 6 8 5 8 -4 0 -11 3
-11 18 0 15 13 16 12 4 -3 -7 -9 -21 -15 -30 -13 -9 1 -20 -3 -24 -9 -5 -8 -8
-7 -8 2 0 6 -5 12 -11 12 -6 0 -9 -7 -6 -15 4 -8 1 -17 -5 -21 -7 -4 -8 -3 -4
4 4 7 3 12 -3 12 -6 0 -8 7 -5 15 8 21 -36 20 -62 -1 -18 -15 -18 -15 3 -5 31
15 50 14 50 -4 0 -8 -4 -15 -9 -15 -4 0 -8 5 -8 12 0 6 -3 9 -6 5 -16 -16 15
-32 63 -32 28 0 49 3 47 7 -2 3 24 10 59 14 34 4 64 8 67 9 12 3 119 16 164
20 59 6 66 11 59 48 -6 33 -11 33 -173 6z"/>
<path d="M11280 12054 c-173 -29 -326 -55 -340 -58 -14 -2 -31 -5 -37 -5 -7
-1 -13 -6 -13 -11 0 -7 6 -7 18 -1 13 7 23 6 32 -2 7 -7 10 -7 7 -1 -3 5 4 10
17 10 14 0 23 -6 23 -18 1 -10 -2 -18 -8 -18 -5 0 -8 3 -7 8 2 4 -1 7 -7 7 -5
0 -9 -4 -7 -10 2 -5 -2 -4 -9 2 -10 10 -16 10 -28 0 -12 -9 -13 -9 -7 1 4 6 2
12 -3 12 -6 0 -11 -6 -11 -12 -1 -7 -7 -2 -15 12 -16 29 -20 19 -4 -11 5 -11
14 -17 20 -14 5 4 9 2 9 -4 0 -5 10 -8 22 -6 12 3 45 7 73 10 29 2 124 16 211
30 87 14 202 32 254 41 148 23 140 20 140 59 0 19 -3 35 -7 34 -5 0 -150 -25
-323 -55z"/>
<path d="M11470 11958 c0 -10 -11 -19 -27 -22 -28 -5 -180 -31 -238 -39 -16
-3 -84 -15 -150 -27 -66 -12 -126 -23 -134 -24 -26 -5 -37 -56 -13 -64 7 -2
16 5 19 17 3 12 10 21 17 21 6 0 4 5 -4 11 -13 9 -13 10 1 6 9 -3 21 -1 26 4
5 5 9 -2 10 -19 0 -15 -1 -19 -4 -9 -2 9 -9 15 -14 11 -5 -3 -6 -10 -3 -16 4
-7 2 -8 -4 -4 -7 4 -12 2 -12 -3 0 -12 33 -15 43 -5 3 3 27 7 54 9 46 2 62 4
183 25 133 23 249 40 257 39 4 -1 15 1 23 4 8 3 26 7 40 9 20 2 26 9 28 36 3
34 3 34 -38 31 -28 -2 -44 1 -50 11 -8 13 -10 12 -10 -2z"/>
<path d="M11420 11640 c-47 -10 -107 -22 -134 -25 -45 -6 -66 -10 -106 -20 -8
-2 -23 -4 -33 -4 -10 -1 -15 -6 -12 -11 4 -6 11 -7 17 -4 6 4 8 2 4 -4 -3 -6
-2 -13 4 -17 6 -4 7 -11 4 -17 -4 -6 -1 -8 7 -6 8 3 13 11 11 17 -2 8 5 7 19
-3 15 -10 27 -12 40 -6 9 5 37 12 61 15 23 3 52 7 64 9 12 2 45 7 75 11 77 11
92 12 112 14 13 1 17 10 17 36 0 33 -2 35 -32 34 -18 -1 -71 -9 -118 -19z"/>
<path d="M5685 11559 c-236 -37 -450 -70 -475 -73 -25 -4 -56 -8 -70 -11 -14
-3 -38 -7 -55 -9 -16 -3 -73 -12 -125 -20 -52 -8 -115 -18 -140 -21 -25 -3
-52 -8 -60 -10 -8 -2 -37 -6 -65 -10 -27 -3 -90 -12 -140 -20 -49 -8 -108 -17
-130 -20 -22 -3 -51 -8 -65 -10 -14 -3 -43 -7 -65 -11 -40 -5 -113 -17 -472
-74 -105 -16 -194 -30 -198 -30 -3 0 24 -33 60 -74 l67 -73 41 8 c23 4 60 10
82 13 81 13 175 28 355 56 102 17 244 39 315 50 72 12 198 32 280 45 83 13
168 26 190 30 22 3 51 8 65 10 14 2 86 14 160 25 326 50 684 108 717 115 13 3
48 8 80 12 90 9 105 16 129 59 13 21 23 41 23 44 1 3 -16 19 -37 35 l-37 31
-430 -67z"/>
<path d="M11650 11535 c-36 -7 -81 -15 -100 -18 -32 -4 -407 -71 -455 -81 -11
-2 -39 -7 -63 -11 -37 -6 -42 -10 -36 -27 4 -13 2 -18 -4 -14 -6 3 -13 3 -16
-2 -9 -14 47 -18 114 -8 25 4 74 11 110 16 36 6 125 20 198 33 87 16 132 20
132 13 0 -7 3 -6 8 1 4 7 55 20 112 29 58 9 108 19 112 23 3 3 4 18 1 34 -6
31 -14 32 -113 12z"/>
<path d="M11609 11386 c-2 -2 -22 -6 -44 -10 -22 -3 -87 -14 -145 -25 -58 -11
-126 -22 -150 -26 -139 -18 -444 -81 -440 -90 3 -5 10 -9 15 -7 6 2 3 -3 -5
-12 -22 -22 -42 -23 -45 -3 -3 15 -1 16 11 6 8 -6 17 -10 19 -7 11 11 -25 30
-37 21 -7 -6 -21 -9 -31 -7 -11 1 -16 -1 -12 -4 4 -4 11 -7 16 -7 5 0 9 -4 8
-10 -1 -5 -5 -9 -10 -8 -4 2 -6 -4 -2 -13 3 -9 9 -12 12 -7 3 5 21 8 39 7 18
0 56 3 84 8 37 7 53 6 58 -2 6 -9 9 -9 12 0 3 11 132 38 263 55 69 10 439 76
443 80 2 2 1 17 -3 34 -5 23 -12 31 -29 31 -13 0 -25 -2 -27 -4z"/>
<path d="M11410 11204 c-36 -7 -83 -15 -105 -18 -22 -2 -47 -6 -55 -9 -29 -11
-274 -55 -312 -56 -10 -1 -22 -11 -29 -22 -8 -15 -8 -19 0 -15 6 4 11 3 11 -3
0 -5 -8 -15 -17 -20 -16 -10 -16 -11 2 -8 11 1 25 6 32 10 6 4 18 1 25 -6 9
-11 15 -11 24 -2 6 6 90 24 185 39 284 45 341 57 334 73 -3 8 -5 23 -5 34 0
22 -1 22 -90 3z"/>
<path d="M3086 11049 c3 -16 1 -30 -7 -34 -7 -5 -10 -4 -5 3 3 6 2 13 -2 16
-5 3 -7 -22 -6 -56 2 -34 1 -58 -3 -54 -4 3 -8 25 -9 47 -1 22 -5 43 -8 46
-10 11 -29 -15 -32 -43 -4 -35 -20 -52 -35 -37 -16 16 -46 4 -53 -20 -9 -34
-7 -79 3 -72 5 3 12 1 16 -5 3 -5 -1 -10 -9 -10 -8 0 -17 -8 -19 -17 -4 -16
-5 -16 -6 -1 -1 10 -11 18 -28 20 -16 2 -27 8 -26 15 1 6 -4 14 -13 17 -12 4
-12 2 -4 -14 13 -24 13 -30 0 -30 -5 0 -10 7 -10 15 0 8 -4 15 -9 15 -5 0 -7
-9 -4 -20 3 -11 10 -20 15 -20 5 0 7 -4 4 -9 -3 -4 4 -17 15 -27 15 -13 18
-26 14 -51 -4 -25 -1 -33 10 -33 8 0 15 -4 15 -9 0 -5 3 -17 7 -27 5 -15 2
-16 -33 -10 -21 4 -40 9 -42 11 -2 2 4 18 13 37 11 20 12 28 4 21 -7 -7 -26
-13 -42 -13 -29 0 -29 0 -13 -24 11 -18 13 -27 4 -32 -7 -4 -8 -3 -4 4 4 7 2
12 -3 12 -6 0 -11 -7 -11 -16 0 -12 6 -15 25 -10 14 4 25 3 25 -1 0 -12 -20
-40 -20 -29 0 5 -8 2 -18 -7 -19 -17 -29 -73 -12 -62 6 4 7 11 4 17 -4 7 -2 8
5 4 6 -4 9 -12 6 -17 -4 -5 5 -9 19 -9 14 0 26 -4 26 -8 0 -5 -16 -8 -35 -7
-33 2 -46 -11 -28 -29 4 -4 6 -24 4 -44 -1 -20 0 -34 4 -30 11 11 13 88 2 81
-6 -3 -7 -1 -3 6 6 8 12 9 20 2 7 -6 17 -7 22 -3 4 4 3 0 -3 -8 -8 -11 -7 -26
6 -58 9 -23 20 -39 25 -35 4 4 7 3 6 -2 -4 -21 0 -36 9 -31 5 4 8 -5 6 -19 -1
-14 3 -29 9 -33 11 -7 14 -8 44 -12 9 -2 1 -6 -19 -9 l-36 -6 21 -20 c12 -11
18 -16 14 -10 -23 28 15 30 39 1 17 -20 17 -20 -1 -6 -11 8 -17 10 -13 3 4 -6
3 -14 -2 -18 -5 -3 -9 -14 -8 -24 1 -14 5 -17 17 -12 8 5 21 6 28 4 6 -3 12
-1 12 4 0 18 -13 22 -32 12 -16 -9 -19 -8 -16 3 3 7 11 13 19 13 8 0 13 9 11
20 -1 11 -5 38 -9 60 -3 22 -3 37 1 34 3 -3 7 -18 8 -32 1 -15 5 -27 8 -27 3
0 7 -13 8 -29 1 -15 9 -46 17 -67 9 -22 14 -29 11 -17 -3 17 3 24 24 32 23 8
28 7 24 -4 -3 -8 -13 -11 -22 -8 -13 4 -12 2 3 -10 11 -8 28 -13 38 -11 13 2
17 -1 13 -11 -8 -22 2 -18 14 4 8 16 7 19 -8 16 -22 -3 -34 4 -26 16 3 5 11 6
17 2 7 -4 17 -8 22 -8 6 0 9 -9 7 -20 -2 -19 -2 -19 8 -2 6 9 15 15 20 12 5
-3 11 -1 15 5 4 6 11 8 16 5 5 -4 5 5 -1 20 -12 32 -12 35 -1 35 5 0 12 -12
16 -27 l8 -28 7 25 7 25 12 -25 11 -25 -3 28 c-4 26 -3 27 13 12 14 -13 19
-13 28 -2 7 8 8 18 4 22 -4 5 -2 5 5 1 7 -4 10 -13 7 -21 -7 -17 24 -14 36 4
5 10 12 7 24 -10 9 -13 16 -21 17 -19 0 3 2 13 4 23 2 9 0 15 -4 13 -14 -9
-41 51 -39 86 1 19 -2 40 -5 45 -10 16 24 106 45 121 11 8 18 26 18 47 0 18 7
40 15 49 21 21 19 47 -5 53 -13 3 -24 21 -33 52 -8 25 -12 49 -10 53 2 4 20
10 39 14 28 5 35 10 32 28 -2 11 -15 27 -30 34 -16 7 -28 18 -28 23 0 6 4 8 9
4 6 -3 15 4 21 15 12 22 1 27 -18 8 -10 -10 -14 -10 -21 0 -12 19 -91 5 -91
-17 0 -14 -2 -14 -10 -1 -14 22 -12 40 5 34 27 -11 38 7 18 29 -10 11 -13 17
-7 14 16 -9 38 19 30 39 -4 9 -1 23 5 31 9 11 9 17 0 26 -10 9 -11 8 -6 -5 4
-11 0 -21 -13 -29 -19 -12 -19 -14 -4 -26 15 -12 13 -12 -8 -2 -36 18 -49 19
-43 3 3 -8 10 -11 17 -7 6 4 4 -1 -4 -11 -13 -17 -15 -16 -25 14 -6 17 -14 28
-18 24 -3 -4 -9 1 -13 10 -7 18 -25 22 -21 5 3 -14 -31 -21 -39 -8 -3 6 -12 5
-21 -3 -15 -12 -15 -11 -3 9 11 17 11 26 2 45 -11 23 -11 23 -6 -3z m102 -260
c17 -26 6 -76 -18 -89 -10 -6 -30 -10 -44 -10 -21 0 -26 -5 -27 -27 -1 -23 -3
-21 -11 12 -5 22 -11 64 -15 94 -5 45 -3 53 9 49 8 -4 21 -3 28 2 18 11 63 -6
78 -31z"/>
<path d="M11390 10909 c-19 -4 -51 -10 -70 -13 -19 -2 -59 -10 -88 -16 -61
-14 -83 -18 -95 -19 -5 -1 -5 -7 -1 -13 6 -10 4 -10 -8 0 -11 9 -18 10 -23 2
-3 -6 -11 -7 -17 -4 -7 4 -8 2 -4 -4 4 -7 1 -12 -9 -12 -10 0 -13 5 -9 13 4 7
3 9 -2 4 -5 -5 -10 -13 -10 -18 -1 -5 -2 -14 -3 -20 0 -5 -5 -8 -9 -5 -4 2
-14 1 -21 -3 -9 -6 -10 -11 -2 -15 6 -4 11 -3 11 3 0 5 17 7 39 5 22 -3 42 0
46 5 3 6 13 7 22 4 12 -5 14 -3 8 8 -4 8 -5 11 0 7 4 -4 15 -2 24 5 14 11 15
10 1 -7 -14 -18 -13 -19 5 -12 11 4 38 10 60 12 22 3 51 7 65 10 14 2 57 9 95
15 81 13 90 18 81 53 -7 28 -22 31 -86 15z"/>
<path d="M11735 10829 c-22 -4 -175 -33 -340 -64 -165 -30 -307 -58 -315 -61
-8 -4 -29 -7 -47 -8 -18 -1 -36 -6 -40 -10 -4 -4 1 -6 11 -4 10 1 21 -3 24
-11 3 -8 0 -11 -7 -7 -6 4 -11 2 -11 -3 0 -6 5 -11 12 -11 6 0 8 -3 4 -7 -4
-5 -14 1 -22 11 -12 17 -14 18 -14 3 0 -27 42 -30 46 -3 4 29 22 43 30 23 3
-9 11 -14 17 -10 6 3 7 1 3 -6 -6 -8 -12 -9 -20 -2 -9 8 -13 6 -13 -5 0 -11 7
-14 21 -10 12 3 53 10 91 16 39 5 202 34 362 63 308 55 305 54 287 101 -7 17
-18 18 -79 5z"/>
<path d="M10703 9705 c-44 -19 -119 -90 -148 -139 -13 -23 -33 -72 -46 -110
-18 -57 -21 -84 -16 -160 6 -107 30 -179 85 -251 57 -76 190 -146 193 -102 0
6 2 21 4 32 2 11 6 45 9 75 12 115 14 137 21 190 4 30 7 60 7 65 -1 6 -4 30
-7 55 -3 25 -12 106 -20 180 -23 201 -19 193 -82 165z"/>
<path d="M7412 9088 c-143 -19 -294 -86 -390 -173 -56 -51 -112 -150 -112
-199 0 -36 30 -249 36 -255 12 -12 12 12 3 68 -12 65 -8 77 26 83 11 1 22 6
25 9 5 6 390 139 401 139 4 0 10 -31 14 -70 5 -48 11 -70 20 -70 11 0 13 15 8
69 -6 69 -6 70 17 64 16 -4 21 -3 16 5 -5 8 3 12 25 12 17 0 37 6 43 14 7 9
39 17 84 21 40 3 78 8 85 10 6 2 37 6 66 10 30 3 57 8 59 10 3 2 14 0 25 -6
15 -9 18 -8 12 2 -6 8 -4 11 7 6 9 -3 21 0 27 6 9 9 11 4 6 -23 -3 -19 -3 -32
0 -28 15 15 15 74 0 114 -26 68 -101 129 -195 158 -88 28 -210 38 -308 24z"/>
<path d="M7770 8762 c0 -7 -5 -10 -12 -6 -7 5 -8 3 -3 -6 4 -7 9 -29 10 -48 2
-31 1 -33 -11 -17 -7 10 -11 22 -7 28 3 6 1 7 -6 3 -9 -6 -8 -14 3 -32 21 -31
20 -40 -1 -23 -16 12 -17 12 -6 -2 7 -9 9 -20 5 -25 -4 -4 0 -3 9 4 21 15 33
3 16 -17 -6 -8 3 -5 21 8 34 24 42 23 16 -3 -9 -9 -12 -21 -7 -28 4 -7 9 -35
10 -63 4 -59 9 -75 22 -75 5 0 8 10 5 23 -3 12 -7 33 -9 47 -6 40 -10 54 -18
66 -3 6 2 19 13 29 10 9 16 24 13 33 -4 12 -1 12 10 -3 16 -20 16 -20 12 4 -2
13 -2 21 2 17 8 -8 39 36 35 49 -2 6 2 4 9 -2 15 -15 22 -46 9 -38 -5 3 -9 -3
-9 -12 -1 -10 -2 -31 -4 -48 -2 -16 0 -41 4 -55 l7 -25 1 25 c1 20 3 22 11 10
9 -13 10 -13 11 0 3 37 -12 177 -20 186 -1 0 -21 -2 -46 -6 -24 -4 -46 -3 -49
2 -2 5 -3 3 -2 -4 2 -7 -1 -21 -5 -30 -6 -10 -5 -19 1 -23 5 -3 10 0 10 8 0 8
7 20 15 27 10 8 9 1 -5 -27 -10 -21 -16 -42 -12 -48 3 -5 2 -7 -3 -3 -4 4 -14
0 -22 -10 -12 -16 -13 -16 -7 3 5 16 4 17 -5 5 -14 -20 -14 -4 0 22 8 15 8 19
0 14 -7 -4 -11 1 -11 13 0 11 5 23 12 27 8 5 9 2 5 -9 -3 -9 -1 -19 6 -23 7
-4 9 -4 5 1 -4 4 -3 15 2 24 5 10 5 23 -1 32 -7 12 -9 12 -9 -1 0 -13 -1 -13
-10 0 -7 11 -10 11 -10 2z"/>
<path d="M3174 8003 c3 -16 60 -356 126 -757 66 -401 122 -732 125 -736 3 -6
3423 748 3474 766 85 29 -245 -42 -1728 -372 -954 -211 -1734 -384 -1736 -382
-5 7 -34 203 -30 206 3 3 197 47 432 99 236 51 984 215 1663 364 1454 318
1378 301 1363 306 -6 2 -229 -44 -495 -102 -266 -58 -1027 -225 -1693 -371
-665 -146 -1225 -269 -1243 -274 -38 -10 -33 -23 -62 165 -11 72 -23 142 -26
156 -5 25 -3 26 53 33 32 3 65 7 73 9 8 1 42 21 74 45 44 31 69 42 97 42 22 0
39 5 42 14 3 8 23 19 44 26 21 7 60 26 87 43 27 17 56 32 64 33 8 2 27 14 41
28 15 14 31 26 35 26 5 0 23 13 41 29 30 26 39 28 122 30 l89 2 29 -36 c17
-19 37 -35 46 -35 17 0 29 37 29 90 0 33 32 64 57 56 11 -3 28 1 39 9 10 8 27
15 36 15 9 0 33 16 52 36 33 34 56 38 56 9 0 -25 38 -28 70 -5 41 29 71 33 86
12 17 -25 75 -27 116 -3 39 23 94 35 102 22 3 -5 15 -7 25 -4 18 5 31 40 31
84 0 10 11 35 25 55 37 55 30 72 -8 22 -23 -30 -36 -60 -40 -93 -8 -56 -13
-63 -29 -47 -18 18 -41 15 -99 -16 -60 -31 -94 -31 -110 0 -9 16 -18 19 -45
15 -19 -3 -46 -15 -61 -26 -20 -16 -29 -18 -39 -10 -8 6 -14 17 -14 24 0 34
-64 20 -73 -15 -5 -20 -90 -62 -131 -64 -41 -3 -65 -38 -64 -92 0 -25 -2 -47
-5 -51 -4 -3 -23 10 -42 29 l-36 35 -100 -1 -100 -1 -25 -32 c-14 -18 -31 -33
-38 -33 -7 0 -23 -11 -36 -25 -13 -14 -29 -25 -37 -25 -7 0 -35 -14 -62 -30
-27 -17 -70 -38 -95 -46 -25 -9 -46 -20 -46 -25 0 -5 -11 -9 -25 -9 -30 0 -75
-21 -124 -58 -34 -25 -47 -29 -136 -39 l-50 -5 -75 456 c-40 251 -78 456 -83
456 -5 0 -6 -12 -3 -27z"/>
<path d="M13386 10108 c5 -7 2 -9 -8 -5 -9 3 -26 -2 -39 -11 -21 -15 -22 -15
-15 4 5 14 4 16 -4 8 -9 -9 -9 -18 0 -35 l11 -24 -20 24 c-12 12 -18 28 -14
34 3 6 1 7 -5 3 -6 -4 -9 -13 -6 -20 3 -8 -3 -12 -18 -11 -13 1 -22 7 -21 12
1 5 -4 10 -12 10 -8 0 -13 -3 -12 -6 1 -3 -2 -6 -8 -6 -5 0 -9 3 -8 6 1 3 -4
6 -12 6 -8 0 -13 -5 -12 -11 1 -6 -8 -11 -20 -11 -12 0 -25 -4 -29 -8 -15 -15
-26 -6 -13 11 13 16 13 16 -7 0 -16 -14 -23 -15 -34 -5 -10 9 -11 9 -6 0 4 -8
2 -13 -5 -13 -7 0 -9 -3 -6 -6 9 -10 -12 -46 -24 -39 -5 4 -9 -1 -9 -9 0 -8 5
-18 12 -22 6 -4 8 -3 4 4 -3 6 -2 13 4 17 5 3 10 0 10 -7 0 -8 5 -6 11 5 6 9
15 15 20 12 5 -4 6 -12 2 -18 -3 -7 2 -4 13 5 15 13 23 15 31 7 9 -9 11 -7 8
7 -1 11 -8 18 -13 17 -6 -2 -9 4 -5 13 7 18 7 17 27 -21 10 -19 16 -24 16 -13
0 9 5 20 12 24 7 5 9 2 5 -8 -4 -11 0 -15 11 -14 9 2 18 8 20 14 2 7 8 9 13 6
6 -4 6 -10 0 -18 -8 -9 -7 -13 4 -13 8 0 12 4 9 8 -2 4 0 10 6 14 5 3 10 1 10
-6 0 -7 3 -9 6 -6 4 4 1 14 -7 24 -9 11 -10 14 -2 9 9 -5 11 -2 7 8 -3 9 -1
16 4 16 6 0 9 -8 7 -18 -2 -10 1 -25 6 -33 7 -11 9 -10 10 6 1 11 1 27 0 35
-1 12 0 12 7 2 5 -7 7 -25 5 -40 -3 -26 -3 -26 7 -4 10 23 30 22 30 -1 0 -7
-4 -6 -10 3 -7 12 -9 10 -7 -7 1 -16 5 -19 13 -12 8 7 14 6 17 -3 4 -9 6 -10
6 -1 1 8 8 10 19 6 15 -6 15 -5 3 11 -11 13 -16 14 -22 4 -6 -9 -9 -9 -9 -1 0
16 17 26 25 13 4 -6 10 -8 14 -5 5 2 7 -9 6 -25 -1 -16 1 -27 6 -24 5 3 7 10
4 15 -4 5 -1 9 5 9 6 0 9 4 5 9 -3 5 -1 13 5 16 6 4 9 1 8 -7 -2 -7 2 -12 9
-11 7 2 10 -4 6 -13 -5 -13 -8 -13 -15 -2 -8 11 -9 10 -6 -1 2 -8 12 -15 21
-17 10 -1 14 2 11 8 -5 7 -2 8 5 4 7 -5 10 -15 7 -23 -3 -8 -2 -11 3 -8 6 3
14 -3 20 -12 20 -34 11 -6 -25 78 -20 46 -41 89 -47 94 -7 7 -8 4 -4 -8 5 -12
3 -16 -5 -11 -8 5 -9 2 -5 -10 4 -10 3 -15 -4 -11 -5 4 -7 15 -4 26 4 11 2 19
-5 19 -6 0 -8 -5 -4 -12z"/>
<path d="M12922 9795 c-16 -20 -19 -32 -12 -49 4 -12 5 -29 0 -37 -4 -7 -7
-71 -7 -142 -1 -82 -5 -132 -12 -141 -7 -8 -8 -17 -3 -20 10 -6 8 -40 -6 -102
-5 -22 -7 -48 -6 -59 2 -11 -1 -35 -6 -54 -6 -21 -6 -39 0 -46 5 -6 5 -27 0
-50 -5 -22 -5 -44 -1 -50 5 -5 6 -19 4 -30 -3 -11 -6 -36 -8 -55 -4 -34 -4
-34 4 4 5 21 12 41 18 45 5 3 10 22 11 41 1 19 2 46 3 60 1 14 -4 39 -11 55
-9 23 -9 37 -1 59 l12 29 23 -22 c15 -15 26 -19 31 -12 3 6 3 11 -1 11 -4 0 0
8 9 18 10 10 14 22 10 25 -3 4 -14 -4 -23 -18 l-17 -25 -11 25 c-10 22 -9 30
10 56 12 16 23 43 24 60 l3 31 -23 -21 c-21 -20 -34 -67 -15 -56 5 4 10 16 10
28 1 17 2 18 6 5 2 -10 -3 -28 -11 -40 -17 -24 -17 -23 -21 32 -2 25 4 42 22
61 22 24 23 27 7 40 -15 12 -16 11 -10 -11 5 -17 4 -20 -2 -10 -5 8 -8 67 -6
130 2 63 4 135 5 160 1 34 3 40 9 25 7 -16 9 -17 9 -3 1 9 -3 20 -9 23 -5 3
-10 12 -10 18 0 8 3 8 9 -2 6 -9 11 -10 15 -2 4 6 1 11 -6 11 -10 0 -9 3 2 10
8 5 12 12 8 15 -3 3 -15 -6 -26 -20z"/>
<path d="M12959 9812 c-2 -12 -5 -26 -9 -39 -1 -5 -2 -12 -1 -17 1 -5 -1 -16
-5 -25 -11 -25 -14 -48 -19 -154 -4 -97 -4 -98 27 -133 17 -19 33 -32 36 -30
3 3 0 11 -6 19 -9 11 -10 36 -2 57 1 3 2 13 1 22 -1 10 3 26 8 37 8 14 8 22 0
26 -7 5 -3 15 10 29 12 12 18 26 14 29 -11 11 -23 8 -19 -5 1 -7 1 -10 -1 -5
-10 17 -20 -5 -17 -40 1 -22 -1 -32 -5 -24 -6 9 -11 10 -15 3 -3 -6 -2 -13 4
-17 5 -3 7 -20 4 -38 -2 -18 -5 -37 -6 -44 -1 -7 -5 -10 -9 -7 -5 2 -5 12 -2
21 4 9 2 14 -3 10 -6 -3 -9 30 -9 83 0 84 5 106 12 57 2 -12 8 -26 14 -32 8
-7 9 -4 5 11 -5 15 -2 24 9 28 9 3 13 11 9 17 -4 8 -8 8 -13 0 -4 -6 -12 -2
-20 10 -7 12 -8 18 -2 14 14 -8 14 8 1 21 -6 6 -6 15 0 24 5 8 10 11 11 5 3
-35 10 -52 30 -67 25 -21 43 -14 29 11 -5 10 -6 21 -3 25 3 3 -2 15 -12 26
-15 16 -16 22 -5 35 11 14 9 20 -13 43 -15 15 -28 21 -28 14z"/>
<path d="M13019 6688 c-6 -21 -5 -37 2 -32 5 3 9 1 9 -5 0 -5 -4 -12 -9 -15
-12 -8 -33 19 -23 29 4 5 1 5 -6 1 -11 -6 -8 -14 12 -35 15 -15 23 -30 20 -34
-4 -4 -3 -12 2 -19 9 -12 10 -30 4 -53 -2 -5 -4 -14 -5 -20 -6 -36 -32 -104
-48 -126 -11 -15 -21 -46 -23 -70 -2 -24 -5 -61 -8 -82 -5 -38 -4 -38 15 -21
15 13 16 20 7 31 -9 11 -8 21 6 44 9 16 15 33 12 38 -3 5 1 22 9 38 8 17 16
42 17 56 2 20 5 23 15 15 15 -12 17 -22 3 -13 -13 8 -13 -28 0 -41 6 -6 5 -15
-1 -24 -9 -13 -10 -12 -5 2 3 10 1 20 -3 23 -5 2 -11 -4 -14 -15 -7 -26 11
-36 30 -17 12 11 12 19 4 35 -7 13 -7 23 -2 27 6 3 9 18 7 33 -1 15 2 33 8 41
6 8 12 32 13 55 2 23 4 59 5 81 2 22 -1 41 -7 43 -5 1 -10 -1 -11 -5 -2 -21
-17 -42 -26 -37 -5 3 -4 11 3 20 8 10 9 18 0 27 -6 8 -8 17 -4 20 3 4 3 7 0 7
-4 0 -7 -1 -8 -2z"/>
<path d="M11435 8369 c3 -17 1 -19 -10 -9 -10 8 -15 8 -21 -1 -5 -8 -3 -9 7
-4 14 9 14 9 -19 -35 -2 -3 -2 4 0 15 2 15 -2 19 -17 17 -11 -2 -35 -4 -53 -4
-23 0 -32 -4 -28 -13 7 -19 -17 -38 -31 -24 -8 8 -14 5 -22 -10 -7 -12 -17
-21 -24 -20 -9 0 -9 2 1 6 6 2 12 9 12 14 0 6 -4 7 -10 4 -6 -4 -7 1 -3 11 4
11 8 13 11 6 2 -7 8 -10 13 -6 19 11 8 20 -25 20 -19 0 -32 -4 -30 -8 8 -13
-11 -9 -25 5 -10 10 -11 9 -6 -5 4 -10 11 -18 16 -18 5 0 8 -3 8 -7 -4 -22 2
-34 14 -30 6 2 20 0 31 -5 13 -7 16 -7 11 1 -4 8 1 10 18 7 13 -2 30 0 38 5 8
5 10 9 5 9 -5 0 -3 7 4 15 6 8 9 18 6 23 -3 5 1 9 9 9 11 0 12 -5 3 -21 -16
-29 -17 -53 -2 -53 7 0 11 9 9 19 -5 25 11 23 18 -2 4 -14 10 -18 23 -13 13 5
15 3 9 -7 -5 -8 -4 -11 3 -6 6 4 9 14 6 24 -3 9 2 6 11 -8 9 -14 14 -18 11 -8
-5 17 17 19 31 3 4 -4 2 -5 -6 0 -10 6 -12 4 -7 -4 6 -9 11 -9 22 0 9 7 14 8
13 3 -1 -5 2 -20 8 -34 6 -14 13 -32 16 -40 12 -32 7 19 -9 86 -8 37 -13 72
-11 79 3 6 -3 17 -13 23 -16 10 -18 9 -15 -9z"/>
<path d="M14896 9908 c-5 -22 -137 -1886 -136 -1920 0 -15 15 -12 113 22 188
65 382 96 617 99 80 1 148 5 151 9 3 4 27 273 53 597 27 325 50 608 52 630 13
136 24 276 24 311 l0 41 -322 -5 c-221 -3 -328 -8 -337 -16 -12 -8 -13 -8 -7
2 6 9 0 11 -21 8 -32 -6 -53 4 -56 25 -3 17 -116 219 -122 219 -3 0 -7 -10 -9
-22z"/>
<path d="M7895 6370 c-4 -6 -10 -8 -15 -5 -5 3 -11 1 -15 -5 -4 -6 -10 -8 -14
-6 -4 3 -8 -5 -8 -17 -1 -12 1 -17 5 -12 8 12 37 13 48 2 4 -4 -4 -7 -17 -7
-14 0 -31 -6 -38 -12 -11 -10 -13 -10 -7 0 4 6 3 12 -3 12 -6 0 -8 8 -5 18 5
16 5 16 -6 -1 -6 -10 -16 -14 -23 -10 -18 11 -36 12 -43 2 -3 -5 -10 -6 -16
-3 -7 4 -8 2 -4 -4 4 -7 2 -12 -3 -12 -6 0 -11 6 -11 13 0 7 -5 5 -11 -5 -5
-10 -16 -15 -24 -12 -8 4 -15 2 -15 -4 0 -11 18 -11 38 1 6 5 12 4 12 -1 0 -6
-7 -13 -16 -16 -9 -3 -12 -11 -8 -18 6 -10 5 -11 -8 -1 -8 7 -18 10 -21 6 -4
-3 1 -13 11 -21 10 -8 6 -8 -11 3 -16 9 -35 15 -44 13 -15 -3 -15 -5 1 -20 10
-10 13 -18 7 -18 -6 0 -15 9 -21 20 -9 17 -7 22 12 29 14 5 25 5 29 -1 4 -7 9
-6 13 1 4 6 3 11 -3 11 -6 0 -8 8 -4 18 5 15 4 15 -9 -1 -8 -11 -23 -17 -34
-15 -11 2 -18 -2 -16 -9 1 -7 -4 -13 -10 -13 -10 0 -10 -2 -1 -8 10 -6 10 -12
-2 -28 -13 -16 -14 -16 -9 -1 4 12 1 17 -13 17 -10 0 -25 6 -33 13 -12 10 -12
9 -3 -3 6 -8 9 -26 7 -39 -4 -21 -3 -22 13 -10 16 13 17 12 4 -3 -16 -22 -31
-23 -31 -3 0 19 -48 31 -63 16 -9 -10 -9 -12 3 -9 8 2 14 -5 15 -16 0 -11 6
-21 13 -23 7 -3 12 3 12 14 0 15 -2 16 -11 3 -9 -12 -10 -12 -7 -1 7 26 30 25
26 0 -3 -21 -8 -24 -39 -21 -29 2 -38 -1 -42 -17 -2 -11 0 -24 6 -30 8 -8 5
-11 -11 -11 -12 0 -22 -4 -22 -10 0 -5 9 -10 20 -10 11 0 20 5 20 11 0 5 4 8
9 5 5 -3 11 1 15 9 3 8 0 17 -6 21 -7 5 -8 2 -3 -6 5 -8 3 -11 -4 -9 -7 3 -12
9 -12 14 1 15 59 14 78 -1 16 -11 14 -11 -9 -7 -25 5 -46 -14 -46 -40 0 -5 -4
-12 -8 -15 -4 -4 -4 -1 1 7 5 9 4 12 -3 7 -6 -4 -8 -14 -5 -23 5 -12 3 -14 -8
-8 -8 5 -5 -1 5 -13 19 -22 16 -26 -16 -23 -26 3 -22 -17 5 -21 12 -2 22 -10
22 -18 0 -18 61 -21 84 -5 12 8 13 6 8 -7 -3 -10 -1 -20 5 -24 6 -4 8 -3 5 2
-3 6 -2 16 4 24 7 13 9 12 9 -2 0 -13 8 -18 28 -18 l27 1 -25 15 c-17 11 -19
13 -5 9 11 -4 26 -8 33 -9 18 -3 32 -27 24 -41 -3 -5 1 -4 10 3 12 10 17 10
26 -1 13 -15 62 -21 62 -7 0 6 -11 8 -25 6 -28 -5 -44 9 -17 16 27 7 52 -2 52
-19 0 -10 6 -13 18 -8 12 4 11 1 -5 -15 -29 -27 -29 -32 1 -20 27 10 37 5 29
-16 -3 -9 1 -14 12 -14 9 0 14 4 11 8 -3 5 1 9 9 9 8 0 12 -4 9 -8 -2 -4 1 -9
6 -11 6 -2 12 -13 13 -26 1 -23 21 -30 33 -10 4 6 3 8 -4 4 -16 -9 -26 14 -13
27 9 9 11 8 5 -6 -4 -12 -2 -17 7 -15 10 2 13 -6 12 -24 -1 -16 2 -28 8 -28 5
0 9 17 10 38 1 115 -3 433 -6 461 -2 18 -5 51 -7 72 -2 42 -3 45 -13 29z"/>
<path d="M5170 4950 c-2 -8 -3 -39 -4 -69 l-1 -55 -82 -20 c-51 -13 -91 -30
-107 -45 l-25 -24 52 -59 c28 -33 63 -66 77 -73 l25 -13 -43 -12 c-41 -11 -82
-40 -82 -59 0 -9 161 -187 188 -209 21 -16 9 -27 -57 -46 -70 -20 -92 -21 -66
-2 18 13 18 15 3 37 -9 13 -60 68 -112 122 -53 54 -96 100 -96 101 0 2 17 6
38 10 20 3 48 15 60 26 l24 20 -21 29 c-31 43 -121 121 -140 121 -9 0 -93 -20
-187 -44 -121 -30 -177 -49 -192 -64 -12 -12 -22 -25 -22 -28 0 -15 107 -125
130 -133 23 -8 21 -10 -30 -24 -30 -9 -68 -19 -85 -22 -27 -6 -28 -5 -12 8 9
8 17 17 17 21 0 14 -95 117 -124 135 -29 19 -29 19 -317 -55 -276 -70 -329
-90 -329 -122 0 -15 92 -117 117 -130 14 -8 36 -11 49 -8 29 8 29 5 4 -24
l-19 -22 92 -109 c72 -86 98 -110 124 -115 17 -3 36 -3 42 1 17 10 13 -11 -4
-25 -8 -7 -15 -18 -15 -24 1 -18 179 -220 203 -229 12 -5 35 -6 51 -3 l30 6
-23 -24 c-13 -14 -21 -31 -18 -38 3 -7 46 -61 97 -120 97 -113 121 -128 176
-108 l29 11 -32 -33 -33 -34 101 -117 c55 -65 111 -122 124 -127 14 -5 37 -5
57 1 45 13 46 13 10 -19 -18 -16 -32 -32 -32 -36 0 -16 203 -244 227 -255 19
-9 42 -7 112 9 49 12 98 22 109 23 20 1 20 4 16 407 -2 223 -9 468 -14 545 -5
77 -10 167 -11 200 -2 58 -2 59 -7 15 -8 -61 -29 337 -22 416 l5 60 -34 3
c-38 2 -61 16 -61 37 0 16 36 37 53 30 7 -2 5 -5 -4 -5 -9 -1 -21 -7 -28 -14
-15 -18 5 -37 39 -36 l25 1 -24 7 c-25 7 -42 31 -22 31 6 0 11 -4 11 -10 0
-24 25 -7 27 18 12 195 13 249 5 322 -5 47 -11 78 -12 70z m-790 -543 c0 -2
-9 -14 -20 -27 l-20 -24 23 -25 c13 -14 56 -63 97 -108 40 -46 79 -83 86 -83
7 0 15 -4 18 -9 3 -5 -32 -18 -79 -30 -103 -26 -113 -26 -85 -3 l23 19 -78 89
c-42 49 -94 103 -113 121 l-37 32 28 10 c16 6 36 11 45 11 9 0 37 7 62 14 25
8 46 15 48 15 1 1 2 -1 2 -2z m525 -217 c-17 -19 -17 -20 8 -50 77 -91 165
-183 187 -195 24 -12 22 -14 -45 -33 -39 -12 -83 -24 -100 -28 -30 -6 -30 -6
-7 10 12 10 22 23 22 30 0 7 -51 65 -114 130 -63 64 -109 119 -103 121 33 12
163 41 166 39 2 -2 -4 -13 -14 -24z"/>
<path d="M2530 4804 c0 -5 24 -42 53 -83 30 -40 54 -78 54 -84 1 -24 8 -42 26
-61 9 -11 17 -24 17 -29 0 -4 11 -23 25 -41 14 -18 23 -36 20 -39 -3 -4 -2 -5
2 -2 8 6 69 -76 65 -88 -1 -5 2 -6 8 -2 5 3 10 3 10 -2 0 -4 11 -21 25 -37 14
-16 25 -32 25 -35 0 -3 19 -26 43 -50 23 -25 35 -41 27 -36 -8 5 -5 -2 7 -16
57 -64 82 -97 78 -103 -3 -3 -2 -4 2 -1 8 6 39 -37 35 -50 -2 -5 -1 -7 3 -3 4
4 41 -37 82 -90 42 -53 80 -99 85 -100 4 -2 6 -8 2 -13 -3 -5 -1 -9 4 -9 5 0
29 -26 53 -57 23 -32 45 -60 48 -63 3 -3 33 -39 66 -80 62 -77 80 -99 114
-139 12 -13 21 -28 21 -33 0 -5 4 -7 9 -3 9 5 27 -32 23 -48 -1 -5 1 -6 5 -4
5 3 14 -1 21 -9 7 -8 11 -14 8 -14 -3 0 5 -10 17 -23 12 -12 33 -37 47 -56 14
-19 35 -45 47 -58 12 -12 19 -23 16 -23 -3 0 4 -9 17 -20 13 -11 20 -20 15
-20 -4 0 3 -9 16 -20 13 -10 21 -19 17 -20 -3 0 11 -18 33 -41 21 -22 36 -46
33 -51 -4 -6 -3 -9 2 -6 5 3 15 0 22 -8 7 -8 11 -14 8 -14 -3 0 7 -13 22 -29
42 -44 62 -71 54 -71 -4 0 1 -5 11 -11 9 -6 14 -15 11 -21 -4 -6 -3 -9 2 -6 5
3 15 0 22 -8 7 -8 10 -14 7 -14 -3 0 4 -11 17 -24 13 -13 30 -34 38 -46 8 -13
33 -44 55 -69 40 -46 51 -59 70 -83 58 -75 91 -115 104 -125 8 -7 12 -13 9
-13 -3 0 7 -14 23 -31 16 -17 26 -36 22 -42 -3 -5 -2 -8 3 -5 5 3 15 0 22 -8
7 -8 10 -14 7 -14 -4 0 0 -6 7 -13 7 -8 24 -28 38 -46 14 -19 39 -50 55 -70
17 -20 33 -40 37 -46 4 -5 21 -26 37 -46 17 -20 28 -39 26 -43 -3 -3 -2 -4 2
-1 8 6 39 -37 35 -48 -1 -5 2 -6 7 -3 5 4 12 -3 16 -14 4 -11 11 -18 16 -15 5
4 9 0 9 -7 0 -7 13 -27 28 -44 52 -60 68 -79 117 -144 27 -36 55 -71 62 -78 7
-7 13 -18 13 -23 0 -6 5 -7 10 -4 6 3 10 0 10 -7 0 -13 37 -60 85 -109 14 -14
25 -29 25 -33 0 -6 40 -53 78 -92 7 -8 11 -14 8 -14 -2 0 8 -12 22 -28 42 -42
77 -94 74 -106 -2 -6 0 -8 4 -4 8 8 80 -82 76 -95 -1 -5 2 -6 8 -2 5 3 10 2
10 -2 0 -5 11 -20 24 -35 14 -14 22 -29 19 -32 -4 -3 2 -6 12 -6 10 0 15 -3
12 -7 -4 -3 7 -19 23 -35 16 -15 27 -28 25 -28 -3 0 3 -10 14 -22 11 -11 18
-26 14 -31 -3 -6 -1 -7 5 -3 7 4 12 3 12 -1 0 -5 16 -26 35 -46 19 -20 33 -37
31 -37 -2 0 10 -15 27 -33 18 -19 52 -56 77 -83 25 -28 59 -59 75 -71 46 -32
125 -74 125 -67 0 4 6 2 13 -3 38 -31 258 -49 357 -30 19 4 48 9 64 12 16 4
33 8 36 10 4 2 20 7 36 9 16 3 61 15 99 26 39 12 77 23 85 25 8 2 29 9 45 15
28 11 39 14 84 24 11 3 29 10 40 16 12 6 21 8 21 4 0 -3 7 0 17 7 9 8 17 12
17 10 1 -2 69 18 151 44 161 52 159 51 192 59 12 2 31 10 42 16 12 6 21 9 21
6 0 -3 17 2 37 10 20 9 45 18 55 20 10 2 27 6 37 8 11 3 29 10 40 16 12 6 21
9 21 6 0 -3 17 2 37 10 20 9 44 17 52 19 9 2 45 13 81 25 36 12 72 23 80 25 8
2 29 9 45 15 28 11 39 14 84 24 11 3 28 9 38 14 10 6 20 10 23 9 3 0 37 10 75
23 39 14 72 25 75 25 10 2 199 62 395 125 72 23 137 43 145 45 8 2 42 13 75
25 33 12 67 23 75 25 17 3 267 83 290 92 17 7 27 10 55 17 11 2 47 14 80 26
33 12 67 23 75 25 32 8 212 65 221 70 5 4 18 8 29 11 11 2 29 6 39 8 11 3 30
10 43 17 13 7 24 12 26 11 1 -1 4 -1 7 -1 3 1 10 3 15 4 6 1 12 4 15 5 3 1 10
4 15 5 6 1 11 3 13 5 1 1 9 3 17 5 8 2 24 6 35 9 11 2 59 18 107 34 47 17 89
28 92 24 3 -3 6 -1 6 5 0 5 6 10 13 11 24 1 56 11 79 23 13 7 23 11 23 9 0 -1
41 10 90 25 50 16 91 28 92 27 2 -1 23 7 48 18 25 11 47 19 50 19 3 0 38 11
78 23 39 12 74 23 77 23 3 1 43 14 90 29 47 15 90 29 95 30 6 1 62 19 125 40
63 21 120 39 125 40 6 1 48 15 95 30 47 15 93 29 102 31 9 2 26 9 37 15 12 6
21 8 21 5 0 -3 14 1 30 10 16 9 30 13 30 11 0 -3 20 3 45 14 25 11 49 20 53
20 4 0 25 5 47 11 22 6 41 11 42 10 2 0 23 8 48 19 25 11 46 19 48 19 1 -1 22
5 47 12 25 7 47 13 50 14 3 1 73 23 155 50 83 27 152 50 155 50 3 1 30 9 60
18 30 9 58 17 63 17 4 0 21 7 37 15 16 8 32 15 35 15 3 -1 42 11 88 26 45 14
87 27 92 28 6 1 62 19 125 40 63 21 122 39 130 41 8 2 65 20 125 40 61 21 115
38 120 39 13 3 205 65 225 73 8 3 20 7 27 9 14 2 140 43 163 51 8 3 20 7 25 8
6 1 33 10 60 20 28 9 57 18 65 20 8 2 16 4 18 5 1 2 5 3 10 4 9 3 55 17 177
56 55 17 108 33 117 35 9 2 25 8 35 13 10 6 20 10 23 10 7 -1 270 82 305 95
17 7 32 12 35 12 3 1 39 12 80 25 41 13 77 24 80 25 3 1 30 9 60 18 30 9 60
17 65 18 6 1 19 6 30 12 11 6 25 12 30 13 6 1 48 14 95 29 47 15 90 28 95 29
6 1 48 15 95 30 47 15 93 29 102 31 9 2 26 9 37 15 12 6 21 8 21 4 0 -3 6 -1
13 5 8 6 17 8 20 4 4 -3 7 -2 7 4 0 5 6 10 13 10 6 0 86 24 177 53 91 30 167
54 170 55 3 1 25 8 50 15 25 7 47 14 50 15 3 1 57 18 120 39 63 21 120 39 125
40 6 1 84 27 175 56 91 30 167 54 170 55 3 0 46 14 95 30 50 16 95 30 100 31
6 1 62 19 125 40 63 21 117 38 120 39 3 1 23 7 45 13 22 6 43 12 47 12 4 1 24
8 45 16 20 9 44 17 52 19 16 3 232 72 396 127 50 16 95 31 100 32 57 15 72 20
83 29 6 5 12 7 12 4 0 -3 46 10 103 29 56 20 111 37 122 40 11 3 25 6 30 8 6
1 42 12 80 25 39 12 77 25 85 27 8 3 17 6 20 6 3 1 50 16 105 35 55 19 105 36
110 37 6 2 24 6 40 11 17 4 36 12 43 18 6 5 12 7 12 3 0 -3 16 0 35 8 19 8 35
12 35 9 0 -3 11 2 25 11 14 9 25 14 25 11 0 -3 13 1 30 10 16 8 32 15 35 14 3
0 30 13 59 29 35 20 57 41 66 61 7 17 15 31 19 31 3 0 24 16 46 36 l40 35 -33
-16 c-19 -9 -43 -18 -53 -21 -10 -2 -27 -6 -36 -8 -61 -14 -448 -132 -708
-216 -82 -26 -211 -67 -285 -90 -144 -45 -278 -87 -535 -170 -88 -28 -167 -53
-175 -55 -9 -2 -51 -15 -95 -29 -44 -14 -93 -30 -110 -35 -16 -5 -129 -41
-250 -79 -121 -39 -308 -98 -415 -132 -107 -34 -206 -65 -220 -70 -14 -5 -110
-36 -215 -69 -104 -33 -298 -94 -430 -136 -132 -42 -319 -101 -415 -131 -96
-30 -229 -73 -295 -94 -66 -21 -214 -68 -330 -105 -115 -36 -300 -95 -410
-130 -110 -35 -274 -87 -365 -115 -91 -29 -228 -72 -305 -97 -77 -25 -268 -86
-425 -135 -157 -49 -325 -102 -375 -118 -49 -15 -220 -69 -380 -120 -159 -50
-389 -123 -510 -161 -536 -171 -629 -200 -780 -248 -88 -28 -367 -116 -620
-196 -253 -80 -530 -168 -615 -194 -85 -27 -263 -84 -395 -126 -132 -42 -325
-103 -430 -136 -104 -33 -230 -73 -280 -89 -49 -16 -171 -54 -270 -85 -251
-79 -801 -254 -1039 -331 -110 -36 -209 -66 -220 -69 -12 -2 -21 -4 -21 -5 0
-11 -179 -16 -240 -7 -60 8 -165 45 -206 72 -52 34 -99 84 -93 99 3 8 1 17 -5
20 -6 4 -8 13 -5 20 3 8 0 17 -5 21 -6 3 -8 12 -5 18 4 7 4 9 -1 5 -4 -4 -15
-2 -24 4 -9 7 -6 1 7 -13 12 -14 22 -29 22 -35 0 -14 -49 49 -50 64 0 7 4 11
9 7 5 -3 13 0 17 6 5 8 3 9 -6 4 -10 -6 -12 -4 -6 11 4 10 4 15 0 11 -7 -7
-41 33 -37 44 1 3 -4 6 -12 6 -8 0 -12 -4 -10 -8 3 -4 -1 -9 -8 -12 -15 -6
-16 20 -2 42 6 10 4 12 -4 7 -8 -6 -11 -2 -9 10 2 10 -2 19 -9 19 -6 0 -15 3
-19 7 -4 4 -13 3 -20 -3 -10 -8 -12 -6 -9 11 4 19 2 20 -12 8 -15 -12 -15 -11
-4 10 7 12 17 20 23 16 7 -4 8 -3 4 5 -4 6 -12 9 -17 6 -5 -4 -13 4 -18 17 -7
15 -10 18 -10 7 -1 -9 -8 -20 -17 -23 -8 -3 -12 -2 -9 4 3 6 1 10 -4 10 -6 0
-10 6 -8 13 1 6 -3 11 -10 10 -8 -2 -10 4 -6 14 5 12 3 14 -8 8 -8 -4 -11 -5
-7 0 4 4 1 19 -6 34 -7 14 -11 32 -9 39 3 6 0 12 -6 12 -5 0 -8 -12 -5 -28 3
-20 2 -23 -6 -12 -12 19 -13 63 -1 55 5 -3 12 -1 15 4 4 5 -2 8 -11 6 -25 -4
-43 13 -36 33 6 14 5 15 -9 2 -11 -11 -12 -17 -4 -22 8 -6 7 -8 -2 -8 -20 0
-35 50 -20 68 9 10 9 13 1 9 -7 -4 -13 0 -15 10 -3 15 -5 14 -10 -5 -3 -12 -3
-20 1 -18 4 3 7 -4 7 -15 0 -19 -1 -19 -17 2 -15 21 -15 25 -2 46 14 21 11 27
-9 24 -4 0 -12 8 -18 19 -6 11 -16 20 -23 20 -9 0 -8 -3 1 -9 7 -4 15 -17 16
-27 2 -10 9 -18 15 -17 6 2 11 -2 11 -8 0 -16 -22 -6 -34 16 -20 33 -39 54
-47 49 -5 -3 -1 12 7 32 8 19 10 33 5 29 -6 -3 -11 -12 -11 -20 0 -26 -20 -26
-30 0 -5 14 -14 24 -18 21 -4 -2 -9 5 -9 17 -2 21 -1 21 17 -3 11 -14 20 -32
21 -40 0 -11 2 -11 6 -2 3 7 -7 28 -21 46 -14 18 -22 37 -18 41 4 5 1 5 -6 1
-7 -4 -10 -11 -7 -16 3 -5 1 -11 -4 -14 -6 -4 -8 7 -6 26 3 27 2 30 -6 15 -8
-14 -14 -16 -25 -6 -7 6 -11 15 -8 20 3 5 -1 9 -8 9 -10 0 -9 3 2 10 9 6 17 5
21 -2 4 -6 9 -6 12 -1 3 5 -3 15 -15 22 -11 7 -17 8 -13 2 3 -6 1 -11 -4 -11
-10 0 -16 29 -12 53 1 5 -3 6 -8 3 -5 -4 -12 -2 -16 3 -3 5 -14 8 -24 6 -14
-3 -18 1 -14 16 3 10 10 19 15 19 5 0 6 -5 2 -12 -5 -7 -3 -8 6 -3 10 6 9 11
-6 22 -10 8 -18 19 -16 24 1 6 -2 8 -7 5 -5 -4 -14 2 -20 11 -6 10 -11 13 -11
8 0 -6 5 -16 12 -23 6 -6 13 -22 15 -34 2 -21 1 -20 -13 5 -8 15 -18 26 -22
23 -4 -2 -7 13 -6 34 0 22 -3 37 -7 34 -4 -2 -13 4 -19 13 -11 17 -11 17 -6 1
3 -10 1 -18 -5 -18 -6 0 -7 -6 -3 -12 4 -8 3 -10 -2 -5 -5 5 -9 12 -10 15 -2
20 -17 41 -25 36 -5 -3 -8 0 -7 8 2 7 -2 12 -8 11 -7 -1 -10 6 -7 17 3 11 9
17 14 14 5 -3 7 -10 4 -15 -10 -15 2 -10 16 8 8 9 9 14 3 10 -11 -7 -42 20
-43 37 0 6 -8 11 -17 12 -13 2 -11 -2 6 -21 22 -24 22 -24 2 -22 -11 0 -19 4
-16 8 2 4 0 11 -6 14 -6 4 -9 20 -6 35 3 22 1 27 -11 23 -11 -4 -11 -8 -3 -13
9 -5 9 -9 1 -14 -6 -4 -14 0 -18 9 -3 10 0 21 7 25 9 6 9 9 1 11 -7 3 -13 13
-15 24 -2 11 -9 20 -17 20 -8 1 -13 6 -12 11 1 6 -4 11 -12 11 -8 0 -12 -3
-10 -7 2 -3 0 -12 -5 -20 -7 -11 -9 -8 -8 10 1 14 6 31 12 39 8 11 8 13 0 8
-12 -7 -61 52 -56 67 2 5 -3 4 -11 -3 -12 -9 -16 -7 -22 16 -5 16 -8 31 -7 36
1 4 -4 6 -10 5 -7 -2 -12 3 -10 10 1 8 -2 11 -8 7 -5 -3 -10 2 -11 12 0 14 -2
14 -9 -4 -13 -31 -18 -29 -15 5 1 19 -3 29 -11 29 -10 0 -11 -4 -3 -13 7 -8 6
-14 -2 -20 -7 -4 -9 -3 -5 4 3 6 2 13 -4 17 -6 4 -7 11 -4 17 5 7 1 9 -9 5 -8
-3 -21 1 -27 9 -7 8 -9 14 -5 14 5 0 1 8 -9 19 -9 10 -14 25 -11 34 4 8 2 18
-4 21 -6 4 -8 14 -5 24 5 14 4 14 -4 2 -8 -10 -8 -18 0 -28 8 -9 8 -16 -2 -25
-7 -7 -10 -7 -7 -1 4 6 0 20 -8 30 -8 10 -14 24 -15 29 0 6 5 3 10 -5 7 -12 9
-10 7 7 0 12 -4 20 -8 17 -11 -6 -31 24 -24 36 3 5 1 10 -6 10 -6 0 -9 -8 -7
-18 3 -11 0 -19 -7 -19 -8 0 -11 7 -7 15 4 11 2 13 -9 7 -11 -7 -12 -6 -2 7
13 15 8 28 -11 28 -6 0 -4 -5 4 -11 12 -8 12 -10 1 -7 -8 2 -16 15 -18 27 -3
21 -1 22 14 10 17 -13 17 -13 0 7 -9 11 -14 25 -10 29 5 5 1 4 -7 -1 -30 -22
-45 -13 -44 27 0 21 -3 36 -8 33 -4 -3 -8 3 -9 13 0 14 -2 14 -9 -4 -5 -13
-12 -23 -15 -23 -4 0 -3 5 0 10 3 6 1 10 -4 10 -6 0 -11 8 -11 18 0 13 2 14 9
4 7 -11 9 -10 14 3 4 9 3 13 -3 10 -9 -6 -15 9 -11 29 1 5 -4 4 -11 -2 -8 -6
-19 -7 -28 -2 -8 5 -18 6 -22 4 -4 -3 -5 2 -1 11 4 12 8 13 13 5 5 -8 9 -7 13
3 6 16 -9 17 -31 3 -8 -5 -12 -3 -10 6 2 7 -3 12 -10 10 -6 -1 -11 4 -10 10 2
7 -2 12 -8 11 -6 -1 -11 5 -12 13 -1 7 -3 21 -4 29 -1 11 -4 12 -15 3 -11 -9
-13 -8 -11 3 2 8 -2 13 -9 12 -8 -2 -10 4 -6 14 4 11 3 14 -5 9 -8 -5 -10 -2
-6 8 8 21 13 20 24 -6 8 -22 9 -22 7 4 -1 15 -5 24 -9 22 -4 -3 -8 0 -8 7 0 8
-6 5 -13 -5 -12 -16 -13 -15 -11 11 1 20 -3 30 -12 30 -10 0 -11 -4 -2 -14 8
-10 8 -17 1 -24 -8 -8 -11 -6 -10 7 1 11 -4 18 -11 16 -8 -1 -11 2 -7 8 7 12
-13 42 -24 36 -4 -3 -8 4 -8 15 -1 10 3 19 8 19 6 0 8 -4 5 -9 -3 -4 4 -17 17
-27 22 -19 22 -19 5 2 -13 14 -15 23 -7 31 8 8 1 10 -24 9 -28 -2 -34 0 -29
12 3 9 1 13 -5 9 -5 -3 -16 5 -23 18 -7 13 -18 21 -24 18 -6 -3 -8 -3 -4 1 4
5 3 18 -2 31 -6 15 -4 27 3 36 7 7 2 5 -10 -5 -22 -18 -23 -18 -32 5 -5 14 -5
31 1 42 6 12 5 17 -4 15 -7 -2 -12 3 -10 10 1 8 -2 11 -8 7 -5 -3 -10 -1 -10
6 0 7 -3 9 -6 6 -4 -4 -1 -14 7 -23 12 -15 12 -17 -1 -12 -8 2 -16 19 -18 38
-2 18 -14 48 -28 65 -13 17 -21 35 -16 40 4 5 2 5 -4 2 -6 -4 -51 45 -105 113
-52 65 -97 119 -101 120 -5 0 -8 -10 -9 -22 -1 -22 -1 -22 -9 2 -4 14 -8 18
-9 10 -1 -9 -7 -6 -18 10 -18 26 -20 29 -22 55 0 8 -6 15 -12 15 -5 0 -7 -5
-3 -12 4 -7 3 -8 -5 -4 -6 4 -9 11 -6 16 3 5 1 12 -5 15 -6 4 -7 12 -3 19 4 7
0 4 -9 -7 -23 -25 -36 -15 -49 39 -6 24 -17 44 -25 44 -7 0 -16 4 -19 10 -4 6
1 7 11 3 13 -5 15 -3 10 8 -4 8 -1 6 7 -4 13 -15 16 -15 27 -2 10 13 9 15 -10
15 -14 0 -20 5 -17 13 3 8 -1 14 -8 14 -7 0 -11 -6 -8 -14 3 -7 0 -13 -7 -13
-8 0 -11 9 -8 25 4 21 3 23 -13 14 -11 -5 -16 -16 -13 -24 4 -8 2 -15 -4 -15
-6 0 -15 13 -20 29 -9 26 -8 28 9 24 23 -6 24 5 3 35 -14 20 -12 27 9 23 5 -1
6 3 2 9 -9 14 -35 13 -36 -2 -1 -7 -1 -22 0 -33 l1 -20 -9 20 c-5 11 -7 30 -4
41 3 13 -1 23 -10 27 -7 3 -14 -1 -14 -9 0 -7 4 -11 9 -8 4 3 8 1 8 -5 0 -12
-20 -25 -21 -14 0 4 -3 21 -5 36 -4 21 -2 27 8 22 7 -4 0 6 -17 23 -16 16 -32
27 -35 25 -3 -2 5 -12 17 -21 17 -13 20 -21 13 -32 -7 -11 -10 -12 -10 -2 0 7
-7 20 -15 28 -8 8 -13 29 -11 49 1 20 -2 33 -8 32 -6 -1 -10 4 -8 11 1 8 -2
11 -8 7 -5 -3 -11 -1 -11 4 -1 6 -2 17 -3 24 0 6 -6 12 -12 12 -11 0 -75 69
-71 76 1 3 -5 -3 -14 -12 -15 -16 -16 -15 -17 13 0 17 -5 35 -9 39 -5 5 -7 -8
-5 -29 6 -51 -5 -37 -13 18 -4 25 -8 50 -9 57 -1 7 -6 16 -11 20 -4 4 -5 1 -1
-7 4 -8 1 -6 -8 4 -8 10 -13 23 -9 29 3 6 2 7 -4 4 -11 -7 -59 53 -55 68 2 6
0 7 -4 3 -4 -4 -13 -3 -21 4 -10 8 -17 8 -26 -1 -9 -10 -8 -11 4 -6 11 4 18 0
22 -14 6 -25 -3 -33 -23 -20 -10 6 -11 9 -2 9 6 0 12 5 12 10 0 5 -5 9 -12 7
-7 -1 -17 18 -24 45 -11 43 -96 168 -114 168 -4 0 -5 -21 -2 -47 l4 -48 -48
54 c-27 30 -59 68 -71 85 -13 16 -23 26 -23 20z"/>
<path d="M12780 4691 c-167 -46 -430 -125 -426 -128 2 -2 86 20 187 48 101 28
209 58 239 66 31 8 79 13 110 11 54 -4 62 -9 515 -332 253 -180 459 -332 457
-338 -1 -5 2 -7 7 -4 5 4 45 -19 88 -49 43 -31 106 -76 141 -100 44 -32 62
-51 62 -67 0 -15 3 -19 10 -12 20 20 -1 41 -133 136 -672 483 -1086 772 -1117
779 -49 12 -65 10 -140 -10z"/>
<path d="M8551 2558 c-1 -9 4 -20 9 -23 6 -4 7 -11 4 -17 -5 -7 -12 -4 -21 7
-16 23 -17 12 -2 -17 9 -16 7 -24 -11 -43 -31 -33 -125 -81 -195 -99 -40 -10
-465 -45 -1225 -101 -641 -47 -1210 -89 -1265 -94 -276 -25 -471 18 -542 119
-21 29 -24 31 -18 10 4 -14 18 -44 30 -67 13 -24 20 -45 15 -48 -8 -5 10 -78
23 -91 4 -4 7 -15 7 -24 0 -14 64 -83 72 -79 2 1 23 -8 48 -19 104 -47 155
-55 350 -55 80 0 197 3 260 7 63 4 147 9 185 12 163 10 197 13 202 18 4 3 12
1 20 -5 7 -6 13 -8 13 -3 0 10 54 15 172 18 43 0 78 3 78 6 0 5 72 9 217 13
29 1 53 4 53 7 0 3 17 6 38 6 41 2 204 13 297 20 33 3 93 6 132 7 40 1 73 4
73 7 0 5 57 9 182 13 32 1 58 4 58 7 0 3 33 6 73 8 141 6 157 7 157 12 0 3 12
5 28 6 15 0 50 4 77 8 28 4 61 9 75 10 14 2 38 8 53 15 16 6 32 9 37 6 4 -3
13 2 20 10 7 8 16 12 21 9 5 -3 9 0 9 6 0 6 5 8 10 5 6 -3 10 -1 10 5 0 6 5 8
10 5 6 -3 10 -1 10 6 0 7 3 10 6 6 6 -5 23 7 74 53 25 23 28 32 28 92 0 53 5
73 25 104 35 54 54 113 41 122 -6 4 -14 14 -17 22 -4 12 -6 12 -6 -2z"/>
</g>
</svg>
